<svg xmlns="http://www.w3.org/2000/svg" style="display: none;" role="img">
  <defs>
    <symbol id="icon-apple" viewBox="0 0 25 32">
      <desc> Apple Icon </desc>
      <path fill="#2F2D29" d="M23.7226 7.8723c-.9-3.58-5.48-1.91001-7 .09999l2.43.35001c-8.18-8.680002-21.99996 1.75-18.539965 12.46 2.790005 8.64 17.999965 14.49 24.319965 6.5 0 0-2-1-2.47-.43-6.27 7.91-19.29997.18-19.89997-8.34-.16359-2.3345.34663-4.667 1.47-6.72 2.13-3.93 8.10997-8.63001 12.71997-3.74001.33.34 2.09.80001 2.43.35001.58-1.64 1.28-2 2.12-1 .16.62 2.49.51999 2.46.42999l-.04.04001z"/><path fill="#82A65C" d="M13.1326 1.37233c.7855.29906 1.4994.75981 2.0955 1.35241.596.59261 1.0609 1.30382 1.3645 2.08757.15.34 2.33.76001 2.43.35001.2656-1.06464.8063-2.04079 1.5681-2.83058.7617-.7898 1.7176-1.365501 2.7719-1.66942.48-.14-1.56-.789999-2.08-.6399992C20.1406.318014 19.0994.916205 18.2687 1.7539c-.8306.8377-1.42 1.8839-1.7061 3.02842l2.43.35c-.4189-.95772-1.0424-1.81211-1.8267-2.50314-.7843-.69104-1.7104-1.20195-2.7133-1.49686-.51-.179999-2.79-.259999-1.32.25v-.00999zM7.72272 9.72236C6.28748 10.9197 5.1947 12.4756 4.55538 14.2319c-.63931 1.7564-.8024 3.6507-.47267 5.4905.11.6 2.49.5799 2.47.4299-.33928-1.81-.19324-3.6777.42327-5.4131.61651-1.7353 1.68151-3.2765 3.08672-4.4669.15-.12-1.87998-.99995-2.33998-.55995v.01001z"/>
    </symbol>
    <symbol id="icon-liquid" viewBox="0 0 21 25">
      <desc> Liquid Icon </desc>
      <path fill="#82A65C" d="M13.8411 4.25464c-3.11 4.78-8.82 15.24996-2 19.40996 1.0155.5656 2.169.8358 3.33.7801.3 0 1.93-.0001 1-.5801-6.27-3.82-.16-14.55995 2.56-18.73995.12-.17-4.22-1.95001-4.92-.87001h.03z"/><path fill="#2F2D29" d="M13.431 23.5845c-2.57-.15-3.05-4.44-2.94-6.35.1721-2.151.8579-4.2292 2-6.06 2.06-3.49004 4.68-6.26003 4.58-10.55003l-2.46-.430008c.7 3.119998 3 5.399998 3.72 8.529998.15.61 2.49.54001 2.46.43001-.72-3.11-3-5.39-3.72-8.53-.11-.5-2.47-.7100079-2.46-.430008C14.771 7.10446 7.48104 11.1445 8.03104 18.2645c.31 4.11 2.77996 5.79 6.55996 6 1.56.09-.63-.66-1.16-.69v.01z"/><path fill="#82A65C" d="M9.72106 6.95455c-2.07-.82-4.07001-1.68999-6.37001-1.51999-1.39.1-3.000004 1-3.140004 2.53-.05 1 .7 1.32001 1.500004 1.58001 1.19465.46753 2.48969.61903 3.76001.43998.8-.19.88999-.67999 1.20999-1.34999.15144-.35314.40141-.65518.72-.86999 1.22-.82 1.67.55999-1.89-.73001 1.11047.43596 2.29749.64343 3.49.61.79-.06 1.05995-.42999.12999-.76999-1.7523-.76177-3.69435-.97445-5.56999-.61-.52824.14173-1.00409.43349-1.36999.83999-.3.34-.59 1.53-1 1.61l3.39999.4-.22999-.06999 1.08.52999c-.74-.61 0-1.83.53-2.3.53-.47 1.50999-.37-.16001-.61-2.06-.29-.32.2.29.45 1.10613.45123 2.29639.65927 3.49.61.81005-.06 1.00005-.41001.13001-.77001zM12.641 3.71458c-.6926-1.24997-1.764-2.24787-3.05995-2.850011-1.89528-.7884946-3.96993-1.044358-6-.73999-1.44.29-1.76001 1.539991-.37001 2.189991 1.39.65 4 1.19 5.55.38.62-.33-1.47999-.95-1.59999-1-.82-.2-2.27001-.59-3.09001-.16l-.22.12001 1.77.14999-.3-.05 1.71001.46001s.35-.60001.39-.68001c.81-.29.38999-.44-1.27001-.43.13889.09905.26933.20943.39.33001.49159.51717.92425 1.08733 1.29001 1.69999.46.71 2.22005.83 2.99995.92.24 0 2.19.18001 1.84-.36999l-.03.03z"/>
    </symbol>
    <symbol id="icon-candy" viewBox='0 0 57 31'>
      <desc> Candy Icon </desc>
      <path fill="#2F2D29" d="M19.7519 8.96203c1.3882-2.30833 3.4962-4.09668 6-5.09 6.57-2.3 9.86 3.2 9.86 8.11997 0 6.88-6.15 16.52-13.92 9.34-.5-.47-2.39-.27-2.4-.27 1.3037 1.2126 2.8488 2.136 4.5342 2.7099 1.6854.5738 3.473.7852 5.2458.6201 7-.71 9.95-7.94 8.85-14.27-.77-4.40997-4.77-6.91997-9-7.43997-4.84-.6-9 1.85999-11.62 5.83999-.05.08 2.11 1.00001 2.46.44001h-.01z"/>
      <path fill="#2F2D29" d="M38.6618 8.33201c1.52-.78 3.05-1.51999 4.63-2.17999 3-1.25 5-2.49999 8-.64999 5.24 3.27-2 2-2.82 4.38-.72 1.99997 3.61 3.70997 4.35 5.05997 1.72 3.15-.72 2.05-2.61 2-3.06-.1-2 1.74-.78 4 .83 1.55 2.24 3.27 2.26 5.14 0 2.9-3.23 2.77-5.48 2-3.19-1.05-6.37-6.48-8.21-9.08-.37-.52-2.48-.38-2.4-.27 2.87 4.06 9.79 13.84 16.33 11.36 3.83-1.45 1.67-5.93.28-8.29-.19-.34-2.14-3.38-1.69-3.76.45-.38 1.53.25 2 .25.82 0 2 .67 2.79.4 3.38-1.12-.8-4.11-2.11-5.32-1.31-1.21-3.06-2-.57-3.99998.5-.38 1.39-.33001 2-.73001.2922-.14696.5473-.35804.7464-.61749.1991-.25945.3369-.56054.4033-.88077.0664-.32023.0595-.65128-.0201-.96847-.0796-.3172-.2299-.61231-.4396-.86325-3.73-5.630005-15.29.51999-18.92 2.36999 0 0 1.74.87 2.35.56l-.09.08999zM18.5919 7.62211c-3.44-3.6-8.17-8.490002-13.73003-7.490002-2.54.45-3.74999 2.000002-1.70999 4.000002.27.27 1.62 1.10999 1.53 1.59999-.16.94-1.78001.78003-2.44001 1.09003-1.509996.71-1.929983 1.11-1.829983 3 0 .53997 2.479993.67997 2.459993.43997-.17-3.11997 1.99999-1.99999 3.64999-3.45999 1.09-.95.23001-1.21-.64999-2-.59-.55-1.73001-1.49999-1.41001-2.48999.69-2.140004 4.00002-1.27001 5.55003-.40001 2.29 1.3 4.38 3.62001 6.18 5.50001.46.49 2.42.3 2.4.28v-.07001zM3.59178 23.392c0 3.22 2.87001 4.59 5.70001 4.8 4.54001.35 7.46001-3.22 10.80001-5.68.12-.09-1.83-.94-2.35-.56-1.72 1.27-3.24 2.83-5 4-.9481.711-2.0403 1.206-3.20001 1.45-2.44.19-3.48001-1.61-3.45001-3.59 0-.51-2.46-.73-2.47-.44l-.03.02z"/>
      <path fill="#82A65C" d="M31.0319 8.2222c1.46 0 0-1.23001-.84-1.23001-1.45 0 0 1.23001.84 1.23001zM34.1218 9.4722c1.45 0 .0001-1.23001-.8399-1.23001-1.46 0-.0001 1.23001.8399 1.23001zM32.2819 11.052c1.46 0 0-1.21997-.84-1.21997-1.45 0 0 1.21997.84 1.21997zM47.3619 6.6222c-3.72.37-6 2.99999-8.13 5.8-.18.24 2.13.59 2.41.5 1.6429-.6104 3.4337-.7012 5.13-.26l-.8-.48c-1.54.83-5.42 2.12-4.09 4.53.29.52 2.5.46 2.4.27-1.2-2.17 2.67-3.5 4-4.24.31-.16-.8-.48-.8-.48-2.691-.791-5.557-.7596-8.23.09l2.41.5c1.86-2.46 4-5.20999 7.33-5.53999 1.08-.11-1.24-.74001-1.67-.69001h.04zM9.0619 25.3421c1.85.26 4 .43 5.52-.84.27-.22-.71-.46-.8-.48-.33-.08-1.24-.34-1.55-.08-.5268.3947-1.1346.6676-1.7796.799-.64505.1314-1.31116.1181-1.9504-.039-.22 0-1.00001-.14-.92001.18.08.32 1.32001.44 1.48001.46z"/>
    </symbol>
    <symbol id="icon-egg" viewBox="0 0 41 36">
      <desc> Egg Icon </desc>
      <path fill="#82A65C" d="M9.10586 1.00507C4.49999 7.05878-1.57012 16.0693 5.1681 22.8516c2.58725 2.6205 8.1314 4.6805 10.9461 1.4014 0 0-2.8431-1.4013-3.4971-.6026-2.2318 2.5924-5.16026-1.4013-6.05585-3.223-1.08783-2.2676-1.30011-4.8482-.59708-7.2589 1.1799-4.20394 4.02305-8.11361 6.63873-11.54684 0 0-2.92841-1.401325-3.49704-.61659z"/>
      <path fill="#2F2D29" d="M7.64172.752958C1.58585 4.67665-2.30925 16.5318 3.0074 22.4173c3.11323 3.4473 10.2921 6.5442 14.3436 2.8027 6.0132-5.4792 4.748-16.00308.0995-21.76251C15.0196.45867 8.73632-1.82546 6.2628 2.33646c-.09951.16815 3.05637 1.40131 3.51127.60255 2.43083-4.10586 5.58673 1.97586 6.24063 3.23705 1.2287 2.17863 1.8836 4.62614 1.9049 7.11864 0 3.3772-1.3505 10.3138-4.9612 11.9533-3.90934 1.7657-7.8613-3.223-8.52943-6.334-.27372-1.9182-.23535-3.8671.1137-5.7734.62549-4.75046 2.20346-8.9264 6.42553-11.65897.1279-.08408-2.55885-1.289212-3.34071-.784737l.01423.056065z"/>
      <path fill="#2F2D29" d="M22.1842 19.4046c2.2728-1.294 4.9343-1.7602 7.5201-1.3173l-.4549 1.093c0 1.1491-1.7343 1.5275-1.4215 2.9708.2558 1.2052.9808 1.4714 1.9901 1.9619 1.0094.4904 2.4594.2242 3.6108.5605 4.5775 1.3173 3.8667 3.0269.1138 4.3581-1.6331.3509-3.2923.5712-4.9613.6586-2.5162.4765-4.1225 2.1721-6.3828 3.153-3.8383 1.6536-3.1559-.6866-5.8711-2.3122-2.7152-1.6255-8.45832 1.3173-6.66715-4.7084.14216-.4344-3.29802-1.2612-3.49704-.6026-1.94754 6.5162 5.57249 5.6053 9.43919 5.7174l-2.5304-.6726c1.7485 1.4013 2.2888 3.3071 4.478 4.204 1.6592.6231 3.4648.7642 5.2029.4063 2.0897-.4624 3.497-1.9478 5.3451-2.8026 2.573-1.2752 5.2598-.9809 7.9607-1.6396 1.9902-.4904 5.7716-2.0459 3.9662-4.6663-.8671-1.2332-3.5823-1.4994-4.8475-1.6676-2.0044-.2803-3.6534-.3784-3.3691-2.8026.1421-1.3173 1.9048-1.7517 1.0803-3.3212-2.0328-3.8536-11.7279-.2802-14.045.7707 0 0 2.4451 1.1912 3.3406.7848v-.1261z"/>
      <path fill="#2F2D29" d="M13.9534 25.8927c1.4596 1.8912 3.566 3.1958 5.9279 3.6714.9791.2636 2.0107.273 2.9946.0275.9839-.2456 1.8867-.7378 2.6206-1.4288.3572-.3483.6373-.7657.8228-1.226.1855-.4603.2723-.9534.2549-1.4483-.0173-.495-.1385-.9811-.3557-1.4276-.2173-.4466-.526-.8439-.9068-1.1671-1.7606-1.2801-3.9324-1.8875-6.1127-1.7096-.7393 0-.526.2523-.0995.5325.7738.3492 1.625.4987 2.4735.4344.5686 0 1.4215 1.8358 1.4926 2.3402.0798.4852.0498.9817-.0878 1.4541-.1377.4724-.3795.909-.7083 1.2785-.5264.6882-1.2725 1.1818-2.1181 1.4013-.8956 0-2.2318-1.7376-2.8431-2.3542-.6173-.4232-1.3521-.6483-2.1039-.6446-.1422 0-1.6064-.0701-1.3079.2522l.0569.0141z"/>
    </symbol>
    <symbol id="icon-meat" viewBox="0 0 59 18">
      <desc> Meat Icon </desc>
      <path d="M43.111 1.008c-11.55-1.58-23.56-1.53-34.49 3-3 1.25-11.81 5.05-6.56 8.74 3.6 2.54 10.34 3.18 14.62 3.87 11.39 1.86 24.36 1.64 35.28-2.45 3.62-1.36 9.68-5.09 4.77-8.79-3.81-2.87-10.09-3.88-14.65-4.69-1.4-.25-1.53.28-.09.54 3.71.66 17.64 3.07 13 9-2.49 3.17-7.36 4.13-11 5a72.178 72.178 0 01-29 .62c-2.43-.46-6.08-.93-8.36-2.1-5.74-2.94-3.72-4.61-.3-6.83a38.45 38.45 0 0111-4.39c8.63-2.22 17.57-2 26.33-.81 1.72.23.32-.52-.56-.64l.01-.07z" fill="#2F2D29"/>
      <path d="M37.202 2.348c-3.36-.44-6.14.45-7.95 3.52-.15.28 1.68.56 1.82.56.5 0-1.3 4.13-1.18 4.6a2 2 0 00.8 1c.82.74 2.54.8 3.55.77 3.86-.09 7-1.68 11-.91a17.25 17.25 0 004.45.67c1.95-.15 4.12-1.08 3.86-3.42-.21-1.94-2.29-3-3.79-3.8-4.39-2.35-8.91-4.06-13.93-3.57-1.08.1 1.24.73 1.68.69a18.29 18.29 0 0111.82 3.86c.83.72 1.83 1.68 1.74 2.9-.19 2.71-3.1 2.46-5.08 2.26-2.69-.27-4.88-.85-7.66-.48-1.5.21-5.62 2-5.95-.54-.15-1.19 1.59-2 .95-3.37-.64-1.37-2.27-1.3-3.45-1.36l1.81.56c1.3-2.22 3.12-3.71 6.05-3.32 1.71.23.32-.52-.57-.64l.03.02z" fill="#2F2D29"/>
      <path d="M37.371 3.848a30.525 30.525 0 01-3.2 5.05s1 .48 1.24.21a31.5 31.5 0 003.19-5c0-.08-1.1-.48-1.23-.22v-.04zM41.491 4.588a21.275 21.275 0 01-1.92 3.85c0 .05 1.07.48 1.24.22a22.619 22.619 0 001.91-3.85c.05-.13-1.14-.47-1.23-.22zM44.871 6.968l-1.24 2.63c0 .09 1.11.47 1.23.22l1.24-2.64c0-.09-1.11-.47-1.23-.21z" fill="#2F2D29"/>
      <path fill="#82A65C" d="M13.611 4.658c1.45 0 0-1.23-.84-1.23-1.46 0 0 1.23.84 1.23zM14.771 3.848c1.46 0 0-1.23-.84-1.23-1.45 0 0 1.23.84 1.23zM16.441 3.238c1.46 0 0-1.22-.84-1.22-1.45 0 0 1.22.84 1.22z
        M14.441 5.658c1.46 0 0-1.23-.84-1.23-1.45 0 0 1.23.84 1.23zM12.281 7.488c1.46 0 0-1.22-.84-1.22-1.45 0 0 1.22.84 1.22z
        M11.211 6.028l.34.09a1.88 1.88 0 00-1.53-.41c-.44.1-.54.46-.2.77a3.22 3.22 0 001.68.75c.32.05 1 0 .93-.47-.07-.47-.87-.67-1.22-.73zM11.941 5.408c1.46 0 0-1.23-.84-1.23-1.45 0 0 1.23.84 1.23z
        M11.071 5.218l.5.42a1.92 1.92 0 001.53.41c.43-.09.56-.46.2-.76l-.5-.42a1.9 1.9 0 00-1.52-.41c-.43.09-.57.46-.21.76zM14.021 8.078c1.46 0 0-1.23-.84-1.23-1.45 0 0 1.23.84 1.23z
        M14.961 7.648a1.72 1.72 0 00.65-.51c.52-.68-1.55-1.44-2-.85a1 1 0 01-.36.32c-.45.22-.1.66.19.84a1.77 1.77 0 001.53.2h-.01zM16.281 5.408c1.46 0 0-1.23-.84-1.23-1.45 0 0 1.23.84 1.23z
        M17.021 4.748l.08-.33c.19-.76-2-1.33-2.16-.58l-.08.33c-.19.76 2 1.34 2.16.58zM15.111 6.158c1.45 0 0-1.23-.84-1.23-1.46 0 0 1.23.84 1.23z
        M14.941 5.018c-.47-.22-1.38-.39-1.75.11-.52.68 1.56 1.43 2 .84l-.44.09h.1l-.85-.17h.09c.35.17 1.14.34 1.43 0 .29-.34-.31-.74-.58-.87zM13.771 7.658c1.46 0 0-1.23-.84-1.23-1.45 0 0 1.23.84 1.23zM15.191 4.908c1.46 0 0-1.23-.84-1.23-1.45 0 0 1.23.84 1.23z
        M16.281 4.488l.83-.5c.87-.53-1.11-1.42-1.72-1.05l-.83.5c-.87.52 1.11 1.41 1.72 1.05z
        M17.691 3.578c1.46 0 0-1.23-.84-1.23-1.45 0 0 1.23.84 1.23z
        M17.621 3.758c-.52-.1-.38-.42-.34 0 .07.72 2.25 1.14 2.16.27-.09-.87-.87-1.2-1.53-1.34-.33-.07-1.08-.2-1.22.25-.14.45.65.77.93.83v-.01z
        M18.691 5.658c1.46 0 0-1.23-.84-1.23-1.45 0 0 1.23.84 1.23z
        M16.941 5.338a2.462 2.462 0 01-.25.75c-.32.61 1.78 1.32 2.16.58.128-.233.213-.487.25-.75.13-.79-2-1.32-2.16-.58z
        M17.111 7.078c1.45 0 0-1.23-.84-1.23-1.46 0 0 1.23.84 1.23z
        M15.531 6.038l-.67.17c-.43.11-.55.45-.21.76a1.82 1.82 0 001.53.41l.67-.16c.43-.11.54-.46.2-.77a1.86 1.86 0 00-1.52-.41z
        M15.521 6.988c1.46 0 0-1.22-.84-1.22-1.45 0 0 1.22.84 1.22z
        M13.511 6.358c-.366.271-.758.506-1.17.7-.46.22-.09.66.19.84a1.77 1.77 0 001.53.2 7.432 7.432 0 001.45-.89c.4-.3-.36-.78-.57-.87a1.51 1.51 0 00-1.43 0v.02z
        M12.691 7.738c1.46 0 0-1.22-.84-1.22-1.45 0 0 1.22.84 1.22z
        M11.361 7.498l.25.91c.19.73 2.37 1.05 2.16.27l-.25-.91c-.2-.73-2.38-1.06-2.16-.27zM15.361 9.078c1.45 0 0-1.23-.84-1.23-1.46 0 0 1.23.84 1.23z
        M16.631 8.848a.81.81 0 01.37-.09c.32 0 1 0 .93-.46-.07-.46-.87-.71-1.22-.74a3.92 3.92 0 00-1.8.24c-.48.2-.08.68.19.85a1.84 1.84 0 001.53.2zM18.361 7.848c1.45 0 0-1.23-.84-1.23-1.46 0 0 1.23.84 1.23z
        M16.692 6.708l-.58.17c-.42.12-.55.44-.21.76a1.86 1.86 0 001.53.41l.59-.17c.42-.12.55-.44.2-.76a1.84 1.84 0 00-1.53-.41z
        M18.691 7.158c1.46 0 0-1.23-.84-1.23-1.45 0 0 1.23.84 1.23z
        M19.002 7.428c-.46-.31-.6-.35-.41-.11.004.064.004.127 0 .19 0 .83 2.15 1.26 2.17.58 0-1.12-1.07-1.75-2.08-1.86-.33 0-1 0-.94.47.06.47.88.69 1.23.73h.03z
        M21.361 8.488c1.45 0 0-1.22-.84-1.22-1.46 0 0 1.22.84 1.22z
        M22.361 7.848l.41-.5c.54-.64-1.52-1.42-2-.84l-.42.5c-.54.64 1.53 1.42 2 .84h.01zM22.021 5.488c1.46 0 0-1.22-.84-1.22-1.45 0 0 1.22.84 1.22z
        M21.281 4.338a3 3 0 00-1.64-.05c-.43.12-.55.45-.21.77a1.89 1.89 0 001.53.41c.21 0 .22-.06 0-.05.32.09 1.09.19 1.22-.25.13-.44-.65-.75-.93-.83h.03zM19.941 6.738c1.46 0 0-1.22-.84-1.22-1.45 0 0 1.22.84 1.22z
        M20.021 4.988c1.46 0 0-1.22-.84-1.22-1.45 0 0 1.22.84 1.22z
        M20.692 4.978l-1.09-.28-.21-.32.05.12a1.49 1.49 0 001.23.73c.2 0 1.13 0 .93-.46a2 2 0 00-2.23-1c-.43.11-.55.45-.21.76a1.88 1.88 0 001.53.41v.04zM13.481 8.068c1.46 0 0-1.23-.84-1.23-1.45 0 0 1.23.84 1.23zM14.651 7.228c1.45 0 0-1.22-.84-1.22-1.46 0 0 1.22.84 1.22zM16.281 6.648c1.45 0 0-1.23-.85-1.23-1.45 0 0 1.23.85 1.23z
        M14.281 9.068c1.45 0 0-1.23-.85-1.23-1.45 0 0 1.23.85 1.23zM12.151 10.898c1.45 0 0-1.23-.84-1.23-1.46 0 0 1.23.84 1.23z
        M10.951 8.628l.5.42a1.9 1.9 0 001.52.41c.43-.1.57-.47.21-.77l-.5-.41a1.86 1.86 0 00-1.53-.41c-.43.09-.57.46-.2.76zM13.901 11.478c1.45 0 0-1.22-.84-1.22-1.46 0 0 1.22.84 1.22z
        M14.841 11.058a2 2 0 00.65-.51c.52-.68-1.56-1.44-2-.85-.093.131-.216.237-.36.31-.46.23-.1.67.19.85a1.8 1.8 0 001.53.2h-.01zM16.151 8.848c1.45 0 0-1.23-.84-1.23-1.46 0 0 1.23.84 1.23z
        M16.891 8.158l.09-.33c.19-.76-2-1.34-2.17-.58l-.08.33c-.19.76 2 1.33 2.16.58zM14.981 9.568c1.46 0 0-1.23-.84-1.23-1.45 0 0 1.23.84 1.23z
        M14.822 8.428c-.47-.22-1.38-.4-1.76.1-.52.69 1.56 1.44 2 .85l-.44.09h.1l-.85-.17h.08c.35.17 1.14.33 1.43 0 .29-.33-.31-.74-.57-.87h.01zM13.651 11.068c1.45 0 0-1.23-.84-1.23-1.46 0 0 1.23.84 1.23zM15.071 8.318c1.45 0 0-1.23-.85-1.23-1.45 0 0 1.23.85 1.23z
        M16.171 7.848l.84-.5c.87-.52-1.11-1.41-1.72-1l-.84.5c-.87.52 1.11 1.41 1.72 1z
        M17.571 6.978c1.45 0 0-1.22-.85-1.22-1.45 0 0 1.22.85 1.22z
        M17.501 7.168c-.53-.11-.38-.43-.34 0 .06.72 2.24 1.14 2.16.27-.08-.87-.87-1.2-1.53-1.33-.33-.07-1.09-.21-1.23.25-.14.46.65.77.94.83v-.02z
        M18.571 9.068c1.45 0 0-1.23-.85-1.23-1.45 0 0 1.23.85 1.23z
        M16.811 8.748c-.039.263-.123.517-.25.75-.31.61 1.78 1.32 2.17.58.118-.237.202-.49.25-.75.13-.8-2-1.32-2.17-.58z
        M16.981 10.478c1.46 0 0-1.22-.84-1.22-1.45 0 0 1.22.84 1.22z
        M15.402 9.448l-.67.17c-.43.1-.54.45-.2.76a1.871 1.871 0 001.53.41l.66-.17c.44-.1.55-.45.21-.76a1.88 1.88 0 00-1.53-.41z
        M15.401 10.398c1.45 0 0-1.23-.84-1.23-1.46 0 0 1.23.84 1.23z
        M13.382 9.768c-.36.274-.749.505-1.16.69-.46.22-.1.67.19.85a1.772 1.772 0 001.53.2 7.787 7.787 0 001.45-.9c.39-.3-.37-.77-.58-.86a1.46 1.46 0 00-1.43 0v.02z
        M12.571 11.148c1.45 0 0-1.23-.85-1.23-1.45 0 0 1.23.85 1.23z
        M11.281 10.898l.25.92c.2.73 2.38 1 2.16.27l-.25-.92c-.2-.73-2.37-1.05-2.16-.27zM15.281 12.478c1.46 0 0-1.22-.84-1.22-1.45 0 0 1.22.84 1.22z
        M16.512 12.228a.78.78 0 01.37-.09c.32 0 1 0 .93-.47-.07-.47-.88-.7-1.23-.73a3.77 3.77 0 00-1.79.24c-.49.19-.08.68.18.84a1.83 1.83 0 001.54.21zM18.281 11.228c1.46 0 0-1.22-.84-1.22-1.45 0 0 1.22.84 1.22z
        M16.572 10.118l-.59.16c-.42.12-.55.45-.2.77a1.871 1.871 0 001.53.41l.58-.17c.42-.12.55-.45.21-.76a1.858 1.858 0 00-1.53-.41z
        M18.571 10.568c1.45 0 0-1.23-.85-1.23-1.45 0 0 1.23.85 1.23z
        M18.881 10.848c-.47-.31-.6-.35-.42-.11.006.064.006.127 0 .19 0 .83 2.15 1.26 2.16.58 0-1.13-1.07-1.75-2.08-1.86-.32 0-1 0-.93.46.07.46.87.7 1.23.74h.04z
        M21.281 11.898c1.46 0 0-1.23-.84-1.23-1.45 0 0 1.23.84 1.23z
        M22.282 11.208l.42-.5c.54-.65-1.53-1.42-2-.85l-.42.5c-.53.65 1.53 1.43 2 .85zM21.901 8.898c1.45 0 0-1.23-.84-1.23-1.46 0 0 1.23.84 1.23z
        M21.122 7.748a3 3 0 00-1.64 0c-.42.12-.55.45-.2.76a1.81 1.81 0 001.53.41c.22 0 .21 0 0 0 .33.09 1.1.19 1.23-.25.13-.44-.65-.75-.94-.83l.02-.09zM19.821 10.148c1.45 0 0-1.23-.85-1.23-1.45 0 0 1.23.85 1.23z
        M19.901 8.398c1.45 0 0-1.23-.84-1.23-1.46 0 0 1.23.84 1.23z
        M20.561 8.388l-1.08-.29-.22-.31v.11a1.52 1.52 0 001.23.74c.21 0 1.14 0 .93-.47a2 2 0 00-2.23-1c-.43.11-.55.46-.2.77a1.86 1.86 0 001.52.41l.05.04z
        M18.901 7.188c1.45 0 0-1.23-.84-1.23-1.46 0 0 1.23.84 1.23zM20.071 6.358c1.45 0 0-1.23-.85-1.23-1.45 0 0 1.23.85 1.23zM21.731 5.768c1.46 0 0-1.22-.84-1.22-1.45 0 0 1.22.84 1.22z
        M19.731 8.188c1.46 0 0-1.23-.84-1.23-1.45 0 0 1.23.84 1.23zM17.571 10.018c1.45 0 0-1.22-.85-1.22-1.45 0 0 1.22.85 1.22z
        M16.361 7.748l.5.42a1.93 1.93 0 001.53.41c.43-.09.57-.46.21-.76l-.5-.42a1.93 1.93 0 00-1.53-.41c-.43.09-.57.46-.21.76zM19.281 10.608c1.45 0 0-1.23-.85-1.23-1.45 0 0 1.23.85 1.23z
        M20.282 10.178a1.72 1.72 0 00.65-.51c.52-.68-1.55-1.44-2-.85a.83.83 0 01-.36.31c-.45.23-.1.67.19.85a1.772 1.772 0 001.53.2h-.01zM21.571 7.938c1.45 0 0-1.23-.85-1.23-1.45 0 0 1.23.85 1.23z
        M22.281 7.278l.08-.33c.19-.76-2-1.33-2.16-.58l-.08.33c-.19.76 2 1.34 2.16.58zM20.401 8.688c1.45 0 0-1.23-.84-1.23-1.46 0 0 1.23.84 1.23z
        M20.282 7.548c-.46-.22-1.38-.39-1.75.1-.52.69 1.56 1.44 2 .85l-.44.09h.09l-.85-.17h.09c.35.17 1.14.34 1.43 0 .29-.34-.31-.74-.58-.87h.01zM19.071 10.188c1.45 0 0-1.23-.85-1.23-1.45 0 0 1.23.85 1.23zM20.481 7.438c1.46 0 0-1.23-.84-1.23-1.45 0 0 1.23.84 1.23z
        M21.591 7.018l.83-.5c.87-.53-1.11-1.42-1.72-1.05l-.83.5c-.87.52 1.11 1.41 1.72 1.05z
        M22.981 6.108c1.46 0 0-1.23-.84-1.23-1.45 0 0 1.23.84 1.23z
        M22.922 6.288c-.53-.11-.39-.42-.35 0 .07.73 2.25 1.15 2.16.27-.09-.88-.86-1.19-1.52-1.33-.33-.07-1.09-.21-1.23.25-.14.46.65.77.94.83v-.02z
        M23.981 8.188c1.46 0 0-1.23-.84-1.23-1.45 0 0 1.23.84 1.23z
        M22.282 7.848a2.211 2.211 0 01-.25.75c-.32.61 1.78 1.32 2.16.58.127-.233.212-.487.25-.75.14-.79-2-1.32-2.16-.58z
        M22.401 9.608c1.45 0 0-1.23-.84-1.23-1.46 0 0 1.23.84 1.23z
        M20.822 8.568l-.67.17c-.43.11-.54.45-.2.76a1.86 1.86 0 001.52.41l.67-.16c.43-.11.55-.46.21-.77a1.89 1.89 0 00-1.53-.41z
        M20.821 9.518c1.45 0 0-1.22-.85-1.22-1.45 0 0 1.22.85 1.22z
        M18.802 8.848c-.364.276-.756.51-1.17.7-.46.21-.09.66.19.84a1.772 1.772 0 001.53.2 8.392 8.392 0 001.46-.89c.39-.3-.37-.78-.58-.87a1.51 1.51 0 00-1.43 0v.02z
        M17.981 10.268c1.46 0 0-1.22-.84-1.22-1.45 0 0 1.22.84 1.22z
        M16.651 10.018l.25.92c.2.73 2.37 1.05 2.16.27l-.25-.92c-.2-.72-2.37-1.05-2.16-.27zM20.651 11.608c1.45 0 0-1.23-.84-1.23-1.46 0 0 1.23.84 1.23z
        M21.922 11.348a.838.838 0 01.37-.09c.32 0 1 0 .94-.46-.06-.46-.88-.71-1.23-.74a3.939 3.939 0 00-1.8.24c-.48.2-.07.68.19.85a1.84 1.84 0 001.53.2zM23.651 10.358c1.45 0 0-1.23-.84-1.23-1.46 0 0 1.23.84 1.23z
        M21.982 9.238l-.58.17c-.42.12-.55.44-.2.76a1.86 1.86 0 001.52.41l.59-.17c.42-.12.55-.44.2-.76a1.84 1.84 0 00-1.53-.41z
        M23.981 9.688c1.46 0 0-1.23-.84-1.23-1.45 0 0 1.23.84 1.23z
        M24.281 9.958c-.46-.31-.6-.35-.41-.11.006.063.006.127 0 .19 0 .83 2.14 1.26 2.16.58 0-1.12-1.07-1.75-2.08-1.86-.32 0-1 0-.94.47.06.47.88.69 1.23.73h.04z
        M26.651 11.018c1.45 0 0-1.22-.84-1.22-1.46 0 0 1.22.84 1.22z
        M27.651 10.328l.42-.5c.53-.64-1.53-1.42-2-.84l-.42.5c-.54.64 1.53 1.42 2 .84zM27.281 8.018c1.45 0 0-1.22-.85-1.22-1.45 0 0 1.22.85 1.22z
        M26.541 6.848a3 3 0 00-1.64 0c-.42.12-.55.45-.2.77a1.86 1.86 0 001.52.41c.22-.06.21 0 0 0 .32.09 1.09.19 1.23-.25.14-.44-.66-.75-.94-.83l.03-.1zM25.281 9.268c1.46 0 0-1.22-.84-1.22-1.45 0 0 1.22.84 1.22zM19.572 10.318c-.46-.31-.6-.34-.41-.1.004.06.004.12 0 .18 0 .83 2.14 1.26 2.16.58 0-1.12-1.07-1.74-2.08-1.85-.32 0-1 0-.94.46.06.46.88.7 1.23.73h.04z
        M21.931 11.388c1.45 0 0-1.23-.84-1.23-1.46 0 0 1.23.84 1.23zM19.141 11.958c1.45 0 0-1.23-.84-1.23-1.46 0 0 1.23.84 1.23zM19.141 13.458c1.45 0 0-1.23-.84-1.23-1.46 0 0 1.23.84 1.23z
        M19.451 13.728c-.46-.31-.6-.35-.42-.11.005.063.005.127 0 .19 0 .83 2.15 1.26 2.16.58 0-1.12-1.06-1.75-2.08-1.86-.32 0-1 0-.93.47.07.47.87.69 1.23.73h.04z
        M21.811 14.788c1.45 0 0-1.22-.85-1.22-1.45 0 0 1.22.85 1.22z
        M22.811 14.098l.41-.5c.54-.64-1.53-1.42-2-.84l-.41.5c-.54.64 1.52 1.42 2 .84zM22.471 11.788c1.46 0 0-1.22-.84-1.22-1.45 0 0 1.22.84 1.22z
        M21.701 10.638a3 3 0 00-1.64-.05c-.43.12-.56.45-.21.77a1.88 1.88 0 001.53.41c.21 0 .22-.06 0-.05.32.09 1.09.19 1.22-.25.13-.44-.65-.75-.93-.83h.03zM20.391 13.038c1.45 0 0-1.22-.84-1.22-1.46 0 0 1.22.84 1.22z
        M20.471 11.288c1.46 0 0-1.22-.84-1.22-1.45 0 0 1.22.84 1.22z
        M21.141 11.278l-1.09-.28-.22-.32.05.12a1.519 1.519 0 001.23.73c.21 0 1.14 0 .94-.46a2 2 0 00-2.24-1c-.43.11-.54.45-.2.76a1.87 1.87 0 001.53.41v.04z
        M20.281 11.078c1.45 0 0-1.22-.85-1.22-1.45 0 0 1.22.85 1.22zM19.891 13.498c1.45 0 0-1.23-.84-1.23-1.46 0 0 1.23.84 1.23z
        M20.831 13.068a1.67 1.67 0 00.64-.51c.53-.68-1.55-1.43-2-.84a1 1 0 01-.36.31c-.46.22-.11.66.19.84a1.731 1.731 0 001.53.2z
        M20.971 11.578c1.46 0 0-1.22-.84-1.22-1.45 0 0 1.22.84 1.22z
        M20.811 10.448c-.47-.23-1.38-.4-1.76.1-.52.68 1.56 1.44 2 .84l-.44.09h.09l-.84-.17.08.05c.35.16 1.14.33 1.43 0 .29-.33-.31-.74-.57-.86l.01-.05zM19.641 13.078c1.45 0 0-1.22-.84-1.22-1.46 0 0 1.22.84 1.22zM24.561 11.078c1.45 0 0-1.22-.85-1.22-1.45 0 0 1.22.85 1.22z
        M22.801 10.758a2.212 2.212 0 01-.25.75c-.31.61 1.78 1.32 2.17.58a2.76 2.76 0 00.25-.75c.13-.79-2-1.31-2.17-.58z
        M22.971 12.498c1.46 0 0-1.23-.84-1.23-1.45 0 0 1.23.84 1.23z
        M21.392 11.468l-.67.16c-.43.11-.54.46-.2.77a1.871 1.871 0 001.53.41l.66-.17c.43-.11.55-.45.21-.76a1.849 1.849 0 00-1.53-.41z
        M21.391 12.418c1.45 0 0-1.23-.84-1.23-1.46 0 0 1.23.84 1.23z
        M19.372 11.778a6.006 6.006 0 01-1.16.7c-.46.22-.1.67.19.84a1.769 1.769 0 001.53.21c.512-.25.998-.551 1.45-.9.39-.3-.37-.78-.58-.87a1.51 1.51 0 00-1.43 0v.02z
        M17.221 12.918l.25.91c.2.73 2.37 1.06 2.16.28l-.25-.92c-.2-.73-2.37-1-2.16-.27zM21.221 14.498c1.46 0 0-1.23-.84-1.23-1.45 0 0 1.23.84 1.23z
        M22.491 14.238a.999.999 0 01.38-.09c.32 0 1 0 .93-.46-.07-.46-.88-.71-1.23-.73a3.829 3.829 0 00-1.8.24c-.48.19-.07.68.19.84a1.77 1.77 0 001.53.2zM24.221 13.248c1.46 0 0-1.23-.84-1.23-1.45 0 0 1.23.84 1.23z
        M22.561 12.128l-.59.17c-.42.12-.55.45-.2.76a1.84 1.84 0 001.53.41l.58-.16c.42-.12.55-.45.2-.77a1.86 1.86 0 00-1.52-.41z
        M24.561 12.578c1.45 0 0-1.22-.85-1.22-1.45 0 0 1.22.85 1.22z
        M24.861 12.848c-.46-.31-.6-.34-.41-.11.004.064.004.127 0 .19 0 .83 2.15 1.26 2.16.58 0-1.12-1.07-1.75-2.08-1.85-.32 0-1 0-.93.46.07.46.87.7 1.22.73h.04z
        M25.811 12.168c1.45 0 0-1.23-.85-1.23-1.45 0 0 1.23.85 1.23zM25.281 7.518c1.45 0 0-1.22-.85-1.22-1.45 0 0 1.22.85 1.22z
        M25.981 7.508l-1.09-.29-.21-.31.05.11a1.48 1.48 0 001.23.74c.21 0 1.13 0 .93-.46a2 2 0 00-2.23-1c-.43.11-.55.45-.21.76a1.88 1.88 0 001.53.41v.04zM19.361 3.118c1.45 0 0-1.23-.84-1.23-1.46 0 0 1.23.84 1.23zM20.521 2.288c1.46 0 0-1.23-.84-1.23-1.45 0 0 1.23.84 1.23zM22.191 1.698c1.46 0 0-1.22-.84-1.22-1.45 0 0 1.22.84 1.22z
        M20.191 4.118c1.46 0 0-1.23-.84-1.23-1.45 0 0 1.23.84 1.23zM18.021 5.948c1.46 0 0-1.22-.84-1.22-1.45 0 0 1.22.84 1.22z
        M16.821 3.678l.5.42a1.92 1.92 0 001.53.41c.43-.09.56-.46.2-.77l-.5-.41a1.9 1.9 0 00-1.52-.41c-.43.09-.57.46-.21.76zM19.771 6.538c1.46 0 0-1.23-.84-1.23-1.45 0 0 1.23.84 1.23z
        M20.711 6.108a1.82 1.82 0 00.65-.51c.52-.68-1.55-1.44-2-.85a.89.89 0 01-.36.31c-.45.23-.1.67.19.85a1.77 1.77 0 001.53.2h-.01zM22.021 3.848c1.46 0 0-1.23-.84-1.23-1.45 0 0 1.23.84 1.23z
        M22.771 3.208l.08-.33c.19-.76-2-1.33-2.16-.58l-.08.33c-.19.76 2 1.34 2.16.58zM20.861 4.618c1.45 0 0-1.23-.84-1.23-1.46 0 0 1.23.84 1.23z
        M20.691 3.478c-.47-.22-1.38-.39-1.75.1-.52.69 1.56 1.44 2 .85l-.44.09h.1l-.85-.17h.09c.35.17 1.14.34 1.43 0 .29-.34-.31-.74-.58-.87zM19.521 6.118c1.46 0 0-1.23-.84-1.23-1.45 0 0 1.23.84 1.23zM20.941 3.368c1.46 0 0-1.23-.84-1.23-1.45 0 0 1.23.84 1.23z
        M22.051 2.948l.83-.5c.87-.53-1.11-1.42-1.72-1.05l-.83.5c-.87.52 1.11 1.41 1.72 1.05z
        M23.441 2.038c1.46 0 0-1.23-.84-1.23-1.45 0 0 1.23.84 1.23z
        M23.371 2.218c-.52-.11-.38-.42-.34 0 .07.73 2.25 1.15 2.16.27-.09-.88-.87-1.19-1.53-1.33-.33-.07-1.08-.21-1.22.25-.14.46.65.77.93.83v-.02z
        M24.441 4.118c1.46 0 0-1.23-.84-1.23-1.45 0 0 1.23.84 1.23z
        M22.691 3.848a2.462 2.462 0 01-.25.75c-.32.61 1.78 1.32 2.16.58.128-.233.213-.487.25-.75.13-.79-2-1.32-2.16-.58z
        M22.861 5.538c1.45 0 0-1.23-.84-1.23-1.46 0 0 1.23.84 1.23z
        M21.282 4.498l-.67.17c-.43.11-.55.45-.21.76a1.89 1.89 0 001.53.41l.67-.16c.43-.11.54-.46.2-.77a1.86 1.86 0 00-1.52-.41z
        M21.281 5.448c1.46 0 0-1.22-.84-1.22-1.45 0 0 1.22.84 1.22z
        M19.282 4.848c-.367.271-.759.506-1.17.7-.46.21-.09.66.19.84a1.77 1.77 0 001.53.2c.513-.244 1-.542 1.45-.89.4-.3-.36-.78-.57-.87a1.51 1.51 0 00-1.43 0v.02z
        M18.441 6.198c1.46 0 0-1.22-.84-1.22-1.45 0 0 1.22.84 1.22z
        M17.111 5.948l.25.92c.19.73 2.37 1.05 2.16.27l-.25-.92c-.2-.72-2.38-1.05-2.16-.27zM21.111 7.538c1.45 0 0-1.23-.84-1.23-1.46 0 0 1.23.84 1.23z
        M22.381 7.278a.81.81 0 01.37-.09c.32 0 1 0 .93-.46-.07-.46-.87-.71-1.22-.74a3.92 3.92 0 00-1.8.24c-.48.2-.08.68.19.85a1.84 1.84 0 001.53.2zM24.111 6.288c1.45 0 0-1.23-.84-1.23-1.46 0 0 1.23.84 1.23z
        M22.442 5.168l-.58.17c-.42.12-.55.44-.21.76a1.89 1.89 0 001.53.41l.59-.17c.42-.12.55-.44.2-.76a1.84 1.84 0 00-1.53-.41z
        M24.441 5.618c1.46 0 0-1.23-.84-1.23-1.45 0 0 1.23.84 1.23z
        M24.752 5.848c-.46-.31-.6-.35-.41-.11.005.063.005.127 0 .19 0 .83 2.15 1.26 2.17.58 0-1.13-1.07-1.75-2.08-1.86-.33 0-1 0-.94.47.06.47.88.69 1.23.73h.03z
        M27.111 6.948c1.45 0 0-1.22-.84-1.22-1.46 0 0 1.22.84 1.22z
        M28.111 6.258l.41-.5c.54-.64-1.52-1.42-2-.84l-.42.5c-.54.64 1.53 1.42 2 .84h.01zM27.771 3.948c1.46 0 0-1.22-.84-1.22-1.45 0 0 1.22.84 1.22z
        M27.002 2.848a3 3 0 00-1.64-.05c-.43.12-.55.45-.21.77a1.89 1.89 0 001.53.41c.21-.05.22-.06 0-.05.32.09 1.09.19 1.22-.25.13-.44-.65-.75-.93-.83h.03zM25.691 5.198c1.46 0 0-1.22-.84-1.22-1.45 0 0 1.22.84 1.22z
        M25.771 3.448c1.46 0 0-1.22-.84-1.22-1.45 0 0 1.22.84 1.22z
        M26.442 3.438l-1.09-.29-.21-.31.05.11a1.48 1.48 0 001.23.74c.2 0 1.13 0 .93-.46a2 2 0 00-2.23-1c-.43.11-.55.45-.21.76a1.88 1.88 0 001.53.41v.04z" />
    </symbol>
    <symbol id="icon-leaf" viewBox="0 0 53 32">
      <desc> Leaf Icon </desc>
      <path fill="#2F2D29" d="M.599716 28.3896C1.76068 29.534 3.14963 30.4211 4.67616 30.9931c1.52653.572 3.15642.8161 4.78356.7165 6.78998-.46 7.86998-6.57 10.17998-11.74 1.52-3.39 3.75-7 7.12-8.88 4.36-2.40001 9.36-1.30003 14.11-1.61003 5.46-.36 11-2.78997 11.53-8.849971l-2.46-.440003c.114 6.186274-1.5446 12.276004-4.78 17.550004-4.59 7.37-14.95 16.13-24.16 10.16-.45-.29-2.59-.37-2.18-.1 6.31 4.08 14 3.48 20.22-.63 8.76-5.82 13.42-16.22 13.36-26.520012 0-.48-2.43-.770003-2.46-.440003-1.19 12.720015-17.12 6.000005-24.85 10.000015-3.54 1.81-5.92 5.14-7.6 8.66-.9 1.89-1.48 3.9-2.28 5.83-1.88 4.55-6.62999 9.26-12.20999 4-.5-.47-2.399994-.28-2.399994-.28v-.03z"/>
      <path fill="#82A65C" d="M19.4597 26.4195c11.25.91 21.31-4.37 26.45-14.53.09-.16-2.1999-1-2.4599-.43-4.88 9.64-14.2501 15.16-25.1501 14.28-1.56-.13.64.64 1.16.68z"/>
      <path fill="#82A65C" d="M28.8198 25.4496c3.88-.71 6.53-6.13 6.89-9.66 0-.45-2.43-.79-2.46-.44-.34 3.31-2.86 8.79-6.5 9.46-.54.1.27.39.37.45.5386.2174 1.1266.2831 1.7.19z"/>
      <path fill="#82A65C" d="M28.8098 25.5597c.7225-.244 1.5007-.2708 2.2383-.0771.7376.1938 1.4023.5995 1.9117 1.1671.4362.2979.9517.4581 1.48.4599.09 0 1.14.0001.92-.1799-1.1558-1.0263-2.55-1.747-4.0557-2.0963-1.5056-.3494-3.0748-.3163-4.5643.0963-.49.15.21.39.37.45.5392.215 1.1256.284 1.7.1999v-.0199zM13.3397 17.6495c.917-3.626 2.923-6.884 5.7479-9.33519 2.8249-2.45124 6.3331-3.97803 10.0521-4.37482.42-.05-1.53-.70999-2.07-.64999-3.7994.38728-7.3886 1.93039-10.2836 4.42126-2.895 2.49084-4.9565 5.80964-5.9064 9.50874-.08.32 2.34.88 2.46.43z"/>
    </symbol> 
    <symbol id="icon-paper" viewBox="0 0 47 44">
      <desc> Paper Icon </desc>
      <path fill="#2F2D29" d="M33.98 6.53492c-2.33-1.59-8.07-7.73001-11.36-5.20001-1.5 1.15-2.66 4.11001-3.73 5.70001-1.5533 2.30667-3.15 4.57998-4.79 6.81998-3.29 4.48-6.79001 8.8-10.42001 13 .00634.0382.0226.0739.04718.1038.02458.0298.05659.0527.09281.0662 7.96932 4.165 15.22912 9.5651 21.51002 16 .33.34 2 .77 2.37.42l3-2.72c.16-.14-1.9-1-2.35-.57l-3 2.73 2.38.41c-2.9847-3.0601-6.1864-5.9008-9.58-8.5-2.22-1.68-11.59002-6.08-10.80002-8.86.51-1.78 3.53002-4.23 4.71002-5.72 1.54-1.93 3-3.9 4.5-5.89 1.64-2.23 3.24-4.50997 4.79-6.80997 1.12-1.67 2.58-5.31001 4.45-6.17001l-2.08-.23999c2.84 1.18 5.54 3.62998 8.08 5.35998.44.3 2.59.39002 2.18.11002v-.04001zM38.1399 30.475c3.12-3.11 5.92-6.5 8.75-9.87 0 0-1.9999-1-2.4599-.44-2.79 3.33-5.5601 6.68-8.6401 9.75-.17.17 1.94 1 2.35.56z"/>
      <path fill="#82A65C" d="M2.71993 18.5049c8.16667-.2933 16.33337-.6267 24.49997-1 1.07-.05-1.2399-.71-1.6699-.69-8.1734.3467-16.34005.68-24.50005 1-1.0699991 0 1.23998.7 1.66998.69z"/>
      <path fill="#82A65C" d="M2.90988 17.705c2.09-2.4 9.19002-13.80001 11.63002-13.00001 1.44.48 3.67 4.45999 4.72 5.56001 2.07 2.19 4.2 4.27 6.09 6.63.41.51 2.46.35 2.4.27-3-3.74-6.51-7-9.57-10.71001-1.28-1.54-2.77-3.39002-4.9-3.67002-1.58-.21-1.68 0-2.73 1.22C6.9099 8.11497 4.07989 13.075.44989 17.265c0 0 1.99999 1 2.45999.43v.01z"/>
      <path fill="#82A65C" d="M11.2999 6.4349c-4.30001 3.09-8.39 6.22-11.180002 10.8-.1599999.27 1.680002.56 1.810002.56 3.93.3 7.61998-1 11.52-1.22 3.9-.22 8.15 1.17 11.84.38.0385-.0001.0763-.0103.1097-.0296.0333-.0193.061-.047.0803-.0804-.07-1.65-3.08-3.3-4.19-4.39-2.16-2.13-4.39-4.04999-5.54-6.91999-.18-.45-1.83-.58-2.24-.47-5.00002 1.44-8.70001 7.41999-11.52001 11.52999-.13.19 1.17001.48 1.19001.48 6.94 1.21 13.68-.65 20.64-.26.08 0 .81 0 .62-.21-2.85-3.23-6-6.32-8.09-10.11l-2.4-.26999c1.2357 1.09451 2.3038 2.36475 3.17 3.76999l2.4.27-2.34-3.65998-2.4-.28c1.3503 1.97 2.8515 3.83228 4.49 5.56998.46.48 2.43.31 2.4.27-2.0814-2.23975-3.9651-4.65543-5.63-7.21999-.3411-.23742-.7297-.39794-1.1389-.47046-.4092-.07251-.8292-.0553-1.2311.05045-1.1504.52974-2.1734 1.30048-3 2.26001l2.41.5 1.31-1.12-2.4-.5c-1.11 2.42-3.67001 4.51999-5.60001 6.38999l2.39999.5c1.29982-1.5391 2.81152-2.88592 4.49002-4l-2.4-.5c-1.61002 2.45-4.13002 4.37-6.31002 6.27l2.39999.5c1.57139-1.9778 3.33323-3.7965 5.26003-5.43l-2.40001-.5c.26001 1.82-3.91999 5-5.20999 6.32l2.39999.49c2.1102-3.2282 4.89811-5.95811 8.17001-7.99998l-2.41-.5c-2.3131 3.40428-5.12835 6.43868-8.35 8.99998l2.39999.5c1.58697-2.5046 3.75061-4.5929 6.31001-6.09l-2.41-.5c-2.1667 2.5288-4.61981 4.7973-7.31001 6.76l2.35.56c1.86282-2.0164 3.94582-3.8177 6.21001-5.37l-2.35002-.56c-1.69495 1.7522-3.52016 3.3735-5.45999 4.85.69861.4444 1.52608.6415 2.35.56 2.1-1.06 3.89001-2.42 6.25001-2.94l-2.22-.61c-1.22658 1.2055-2.56606 2.2905-4.00001 3.24-.1.06 1.8.92 2.34.56 1.98011-1.4135 4.17021-2.5068 6.49001-3.24l-2.21-.6c-1.4635 1.3343-3.0583 2.517-4.76002 3.53l2.35002.56c1.8824-1.4062 4.0611-2.3639 6.37-2.8l-2.15-.65-3.87 2.65c.7105.4156 1.5285.6105 2.35.56 1.47-.6 2.93-1.14 4.44-1.65l-2.35-.56c-1.0248.7366-2.0972 1.4047-3.21 2 .6824.3733 1.4426.5821 2.22.61 1.1205-.2239 2.2159-.5589 3.27-1-.696-.3386-1.4487-.5454-2.22-.61-.7145.0772-1.4002.3241-2 .72-.21.1 1.83.67 2.21.6 2.79-.5 5.25.15 7.95-.26.44-.07-1.54-.73-2.07-.65-2.71.4-5-.53-7.61.2-.54.15 1.64.7 2.08.65l2.81-.16-1.76-.63-1.3.35 1.88.67c.6465-.2249 1.3182-.3694 2-.43l-2.08-.65-1.79.47 2.21.61c1.0315-.3406 2.0346-.762 3-1.26.15-.07 0-.2-.08-.23-.909-.4203-1.7172-1.0307-2.37-1.79l-2.29-.18 3 2.19c.7371.2459 1.5224.311 2.29.19-1.245-1.2066-2.2168-2.666-2.85-4.28l-2.4-.27c1.08 1.2225 2.0819 2.5117 3 3.86l2.4.27c-1.06-1.44-2-2.91-3-4.45l-2.39-.27c1.3134 1.1893 2.4068 2.6009 3.23 4.17l2.4.28c-1.6192-1.7049-3.1068-3.5301-4.45-5.46l-2.4-.27999c1.0667 1.18559 1.8649 2.58759 2.34 4.10999l2.43.36-2.83-4.56999-2.4-.26999c1.3263 1.85348 2.2556 3.96078 2.73 6.18998l2.43.35-3.47-6.68-2.4-.28c.979 1.7164 1.6937 3.5706 2.12 5.5l2.43.35c-1.5347-1.5375-2.6086-3.4739-3.1-5.58999l-2.14-.17999c2.19.86998 2.17 4.14998 2.1 6.07998l2.43.36c-.89-1.36-4.06-5.77-2.37-7.4l-2.08-.23999c1.62.74 1 4.12999.76 5.34999l2.43.35c-.68-1.48-2.81-5.26999-1.44-6.81999l-1.28.04999c-1.2-.12-.9134.68.86 2.4.2199.9136.2199 1.8664 0 2.78l2.43.36c-1.1261-1.3254-1.9061-2.90932-2.27-4.61-.11-.44-2.41-.81-2.46-.43-.219 1.73729-.8649 3.3933-1.88 4.82l2.46.43c-.155-.7062-.1621-1.4367-.0209-2.1457.1411-.70909.4274-1.38127.8409-1.97429l-2.46-.43c.25 2.04999-.83 3.81999-1.84001 5.53999l2.46001.44c-.1488-.7936-.0338-1.6141.3273-2.3363.3611-.7223.9485-1.3065 1.6727-1.6637l-2.4-.5c-.1788 1.4321-.6123 2.8206-1.28 4.1l2.46.43c.3611-1.4192 1.1293-2.7018 2.21-3.69l-2.41-.49998c-.52 1.33998-1.05 2.67998-1.6 3.99998-.11.25 2.17.87 2.46.44.5468-.9436 1.2196-1.8082 2-2.57l-2.06-.56c.0136.4765-.0678.9509-.2395 1.3956s-.4302.8507-.7605 1.1944c-.09.15 2.07.85 2.4.5.2601-.5358.7195-.9485 1.28-1.15l-1.84-.15c-.06 0-.95 2.15-1 2.18-.05.03 2.17 1 2.46.43.5115-.7026.7593-1.5629.7-2.43 0-.2-.41-.29-.57-.34-1.65-.5-2.18-.41-3.42.9l2.41.49c.3295-.3422.5876-.7465.7593-1.1895.1717-.4429.2535-.9156.2407-1.3905.07-.44-1.81-.58-2.07-.57-1.55.08-2 1.61-2.83 2.82l2.46.44c.55-1.33 1.08-2.67 1.6-4 .12-.29-2.12-.78001-2.4-.50001-1.1033 1.04511-1.9047 2.36811-2.32 3.83001-.09.3 2.24.88 2.46.43.6736-1.2734 1.1074-2.6598 1.28-4.09.06-.44999-2.11-.68999-2.41-.49999-.7287.389-1.3218.99049-1.70045 1.72459-.37867.7342-.52501 1.5662-.41956 2.3854 0 .45 2.24001.82 2.46001.44 1-1.74 2.09-3.49 1.84-5.54999-.06-.46-2.22-.81-2.46-.43-.4141.59276-.7007 1.26493-.8418 1.97409-.1412.7091-.1338 1.4398.0218 2.1459.08.47 2.2.81 2.46.43 1.0181-1.4251 1.6643-3.08189 1.88-4.82l-2.46-.43c.405 1.74305 1.2018 3.3709 2.33 4.76.21.26 2.39.78 2.44.36.22-2.17-.35-6.33-3.43-6.18-3.3.15-.45 5.23.39 7.06.16.33 2.35.75 2.43.35.43-1.91.7-4.89998-1.41-5.85998-.37-.16-1.72-.58002-2.08-.24002-1.78 1.72 1.26 6.06 2.32 7.68.19.3 2.42.73 2.43.36.09-2.43-.21-5.59-2.75-6.6-.18-.07-2.21-.45998-2.13-.16998.5128 2.16758 1.605 4.15508 3.16 5.74998.24.25 2.5.63 2.43.35-.4313-1.9844-1.1666-3.8902-2.18-5.65-.28-.51-2.5-.47999-2.4-.28l3.47 6.69c.7426.402 1.6041.5261 2.43.35-.4714-2.2899-1.4222-4.454-2.79-6.34999-.33-.51-2.49-.42999-2.4-.26999l2.83 4.55998c.27.44 2.46.46 2.43.36-.5031-1.5709-1.3196-3.0235-2.4-4.27-.7455-.36155-1.5913-.46023-2.4-.27999 1.3382 1.93369 2.826 3.75929 4.45 5.45999.33.33 2.55.56 2.4.28-.8206-1.5763-1.9181-2.9922-3.24-4.18-.33-.31-2.55-.53-2.39-.27.9067 1.5334 1.89 3.0167 2.95 4.45.36.5 2.48.4 2.4.27-.9205-1.3465-1.9224-2.6356-3-3.86-.29-.33-2.54-.62-2.4-.27.6357 1.6127 1.6072 3.0716 2.85 4.28l2.29.19-3-2.2c-.7382-.2402-1.5223-.3053-2.29-.19 1.54 1.54 2.27 1.95-.54 3 .6929.3452 1.4475.5491 2.22.6l1.79-.47c.51-.14-1.61-.72-2.08-.65-.6811.0656-1.3522.2098-2 .43-.59.16 1.54.7 1.88.67.6914-.0213 1.3715-.1811 2-.47.27-.11-1.55-.62-1.75-.63-1.2718-.0753-2.548-.025-3.81.15l2.08.65c2.42-.67 5.11.17 7.6-.2l-2.07-.65c-2.66.41-5.25-.23-8 .26l2.21.61 1.74-.63-2.21-.6-3 .93 2.21.6c1.115-.5916 2.1875-1.2599 3.21-2 .21-.16-1.91-.71-2.35-.56-1.51.5-3 1.05-4.44 1.65l2.35.56 3.87-2.64c.28-.2-1.92-.65-2.22-.61-2.4014.4552-4.6703 1.4428-6.64 2.89-.1.06 1.79997.89 2.35.56 1.7023-1.0121 3.2972-2.1949 4.76-3.53.28-.26-1.9-.69-2.21-.6-2.4155.7402-4.69752 1.861-6.76002 3.32l2.34.56c1.43592-.9467 2.77572-2.0319 4.00002-3.24.31-.3-1.93-.66-2.21-.6-2.44002.54-4.31 1.91-6.52 3l2.34997.56c2.01939-1.438 3.92503-3.0293 5.70003-4.76.2-.21-1.92-.86-2.35002-.56-2.25916 1.5699-4.33247 3.3916-6.18 5.43-.21.22 1.93001.87 2.35001.56 2.73285-2.0002 5.22601-4.3087 7.43001-6.88-.743-.3825-1.5762-.5553-2.41-.5-2.6085 1.5276-4.81059 3.6612-6.42 6.22.72789.4231 1.57464.5953 2.40997.49 3.26593-2.5929 6.12143-5.6642 8.47003-9.11.13-.2-2.07-.7-2.41-.5-3.31767 2.08075-6.14302 4.8583-8.28003 8.14-.07.1 2 .87 2.41.5 1.16-1.18 5.59003-4.59 5.32003-6.45-.07-.46-2.09-.75999-2.41002-.5-1.97134 1.6729-3.7703 3.5388-5.37 5.57-.07.08 2 .84 2.4.49 2.24999-1.95 4.78002-3.88 6.43002-6.38998.13-.2-2.06-.73-2.41-.5-1.71193 1.14815-3.25949 2.52418-4.60001 4.08998 0 0 1.99999.9 2.39999.49 1.93002-1.86 4.58002-3.99998 5.72002-6.51998.16-.35-2.13-.63-2.41-.5-1.12.54-.73.21998-1.42 1.25998-.08.10999 2.06.87002 2.4.49002.8285-.9575 1.8511-1.72788 3-2.26001l-2.37-.41999c1.6649 2.5677 3.5485 4.98669 5.63 7.22998l2.4.27c-1.6384-1.7343-3.1396-3.59321-4.49-5.56-.35-.51-2.5-.43-2.4-.28l2.34 3.67c.33.52 2.49.42 2.4.27-.8689-1.40331-1.9366-2.67319-3.17-3.76999-.32-.29-2.56-.55999-2.4-.26999.65 1.15 7.64 9.10998 7 9.80998-.38.44-4.53.16-5.29.23-4.18.37-8.19001 1-12.43001.27l1.19.49c2.69-3.93 6.22001-9.90999 11.13001-11.30999l-2.24-.45999c1.15 2.87 3.38 4.78998 5.54 6.91998.36.36 3.79 3.25 3.75 3.42-.28 1-2.38.5-2.85.45-2.6593-.2477-5.333-.3012-8-.16-3.69002.21-7.31002 1.5-11.000019 1.23l1.809999.56c2.76-4.54 6.82001-7.63 11.07002-10.67999.11-.08-1.82-.94-2.35-.56l-.02-.04001z"/>
      <path fill="#82A65C" d="M2.72988 17.955l16.00002-1.0501-1.87-.6699-2.36.6599c-.6.17 1.57.69 1.88.67 1.5-.09 5-.36 5.95-1.84.95-1.48-.7-3.2-1.74-4.55l-2.4-.28c1.32 1.2904 2.4938 2.7224 3.5 4.2701.34.53 2.48.41 2.39.28-.9944-1.5535-2.1656-2.9864-3.49-4.2701-.7556-.3252-1.5898-.4226-2.4-.28.79 1 2.39 2.7901 1.79 4.2701-.53 1.32-4.23 1.6499-5.28 1.7099l1.88.6701 2.35-.66c.61-.17-1.56-.6901-1.87-.6701L1.05986 17.265c-1.0799971.07 1.24002.72 1.67002.69z"/>
    </symbol> 
    <symbol id="icon-coffee-paper" viewBox="0 0 47 31">
      <desc> Coffee-Paper Icon </desc>
      <path fill="#2F2D29" d="M4.38027 2.28161c14.02483.5215 28.03493.35733 42.03033-.49252L43.3611.977874C40.567 5.84461 38.0489 10.8596 35.8183 15.9999c-3.0495 7.1417-2.637 12.8782-11.8592 13.2548-4.2723.1883-3.5799.6664-6.0401-2.6365-1.5848-2.4223-3.026-4.9325-4.3165-7.5182L3.54056 1.55731C3.0986.789546-.14245.905437.00486943 1.1517 4.98428 9.84336 9.50701 19.1434 15.0904 27.473c1.8268 2.6944 2.5781 2.9841 5.7602 3.1434 4.1397.2173 11.8887.507 14.4668-3.0855 2.5781-3.5926 3.4179-9.3725 5.171-13.2838 1.9593-4.34579 4.1544-8.54678 6.4968-12.70429.2504-.43458-2.7549-.825705-3.0348-.811219C30.2005 1.57178 16.4507 1.7408 2.70083 1.23861c-2.298194-.08691.92812.95608 1.70891.98505l-.02947.05795z"/>
      <path fill="#82A65C" d="M6.63426 4.03431L18.7734 25.4303c.4273.7533 3.683.6519 3.5357.3911L10.1552 4.41096c-.4272-.76776-3.66826-.66635-3.52094-.4056v.02895zM14.7515 4.0923c3.3589 6.8568 6.541 13.7811 9.5463 20.7731.3241.7532 3.6978.7677 3.5357.4056-3.0053-7.0113-6.1874-13.9405-9.5463-20.78759-.3683-.75328-3.683-.7098-3.5357-.39111zM23.6792 11.2196c1.3981 2.7532 2.6471 5.577 3.7419 8.4599.3683.9416 3.6388.6374 3.6388.6374-1.1301-2.9598-2.4135-5.8608-3.845-8.6917-.3831-.7677-3.683-.7098-3.5357-.4056z"/>
      <path fill="#82A65C" d="M19.4511 24.4165c4.1937-1.5162 8.4611-2.8296 12.8021-3.9402.7072-.1884-2.2834-1.1444-3.0495-.9416-4.4196 1.1444-8.8392 2.4916-13.2588 4.0706-.4567.1738 1.1344.6953 1.1786.7098.7351.2502 1.5283.2854 2.2834.1014h.0442zM17.035 20.056c5.0678-1.3037 10.0865-2.8006 15.0561-4.4906.4714-.1594-1.1344-.6809-1.1786-.6954-.7351-.2478-1.5263-.288-2.2835-.1158-4.832 1.6321-9.7427 3.0807-14.7319 4.3458-.7661.2028.3535.5505.545.6519.7953.3277 1.6685.4281 2.5192.2897l.0737.0144zM14.4422 14.4644c4.9038-1.2732 9.7009-2.915 14.349-4.91077.4567-.2028-1.1196-.68082-1.1786-.6953-.7323-.26186-1.5276-.30224-2.2834-.11592-4.5225 1.93779-9.1858 3.54049-13.9512 4.79489-.7513.1883.3536.5505.5598.6374.7885.3337 1.6587.4344 2.5044.2897zM11.7167 10.2779c3.0643-1.07197 6.1433-2.04253 9.2665-2.89721.7218-.20281-.3094-.56493-.5599-.65185-.794-.31284-1.6582-.41284-2.5044-.28974-3.2558.92711-6.4673 1.94114-9.66418 3.04209-.45669.17383 1.11963.69531 1.17856.70981.73762.2349 1.52512.2749 2.28342.1159v-.029z"/>
    </symbol> 
    <symbol id="icon-vegetables" viewBox="0 0 57 35">
      <desc> Vegetables Icon </desc>
      <path fill="#2F2D29" d="M40.4422 16.1033c-8.35.42-16.7.85-25.06.49-4.82-.21-10.76005-1.83-14.620055 1.94-.17.17 1.919995 1 2.339995.57 4.15-4.06 13.84006-1.73 19.31996-1.69 6.57 0 13.1301-.29 19.6901-.62 1.08-.06-1.24-.71-1.67-.69z"/>
      <path fill="#2F2D29" d="M40.9521 22.4531c-6.08.24-12.15.32-18.23.17-3.57-.09-19 .8-19.94-3.84-.12-.61-2.490025-.57-2.460025-.44 1.080005 5.41 8.590015 4.23 12.860025 4.5 9.8052.6 19.6346.7001 29.45.3 1.07 0-1.25-.71-1.68-.69zM38.2421 20.5233c.4732-1.1879.4732-2.512 0-3.7-.1-.26-1.25-.27-1.2-.14.4601 1.1628.4601 2.4572 0 3.62 0 .12 1.14.46 1.23.22h-.03zM33.5821 21.0731c.3057-.6641.4235-1.3993.3406-2.1257-.0829-.7263-.3632-1.4161-.8106-1.9943-.2-.25-1.24-.18-1.2-.13.4271.5652.6934 1.2353.7708 1.9394.0775.7041-.0368 1.4161-.3308 2.0606-.05.1 1.12.47 1.23.21v.04zM29.3321 20.4132c.2856-1.064.2117-2.1924-.2099-3.2101-.11-.25-1.2501-.26-1.2001-.13.4034.9915.4667 2.0888.18 3.1201-.05.17 1.17.45 1.23.22zM25.7421 19.6733c.0515-.765-.061-1.5321-.33-2.25-.06-.18-.43-.22-.59-.24-.16-.02-.67-.07-.64 0 .2681.7181.3806 1.4851.33 2.25 0 .24 1.22.39 1.23.22v.02zM21.7422 19.5233c.1167-.805-.0086-1.6265-.36-2.36-.12-.26-1.25-.25-1.2-.13.3292.7082.4439 1.4973.33 2.27 0 .21 1.2.41 1.23.22zM17.7422 18.3432c-.0588-.3509-.1772-.6891-.35-1-.13-.26-1.25-.2401-1.2-.1401.1595.3141.2675.6517.32 1 0 .3 1.25.29 1.23.22v-.0799zM14.0022 18.9132c.1107-.2914.1564-.6035.134-.9144-.0225-.3109-.1126-.6131-.2641-.8856-.09-.17-.5699-.21-.7399-.22-.17-.01-.5301-.06-.4601.09.1423.2598.2251.548.2424.8438.0173.2957-.0313.5916-.1424.8662 0 .13 1.1501.46 1.2301.22zM10.2721 18.7532c-.0025-.5907-.0798-1.1787-.23-1.75-.08003-.31-1.24001-.26-1.23001-.22.14653.5755.22373 1.1663.22998 1.76 0 .25 1.23003.35 1.23003.21zM40.0321 16.4532c1-.28 1.17 1.41 1.14 2.12-.0652.9433-.3829 1.8517-.92 2.63 0 0 1.05.48 1.23.22.85-1.3 1.35-3.13.47-4.55-.3501-.4347-.8332-.7425-1.3751-.8761-.542-.1337-1.1128-.0859-1.6249.1361-.25.07.12.19.19.22.267.1175.5631.1523.85.1h.04z"/>
      <path fill="#82A65C" d="M46.2821 18.0532c4.25-4.09 5.23-14.13001-1-17.090007-.23-.11-2.31-.400007-2.11-.100007 1.4123 1.993054 2.1451 4.387954 2.09 6.830014l2.14.18-1-.42002c-.2-.08-2.31-.46-2.11-.1.31.54 2.27 2.80002-.06 3.00002-.12 0-.45 0-.36.21.5216 1.1305.7123 2.3856.55 3.62-.11 1.05-.71 1.87-.61 2.95.05.56 2.48.64 2.46.43-.108-.4328-.0611-.8897.1325-1.2915.1936-.4019.5217-.7233.9275-.9085.0124-.0082.0225-.0194.0296-.0325.007-.013.0107-.0276.0107-.0425 0-.0148-.0037-.0295-.0107-.0426-.0071-.0131-.0172-.0242-.0296-.0324-1-.92-1-1.71.16-2.38.07 0 .08-.09 0-.14-.69-.68-.92-.83-.83-1.73-.06.66 1.48-2.33001.94-.63.39-1.23001-.36-1.67001-1-2.72001l-2.1-.10001 1 .42001c.2.08 2.13.56 2.14.18.0558-2.5055-.7021-4.96157-2.16-7l-2.1-.10001c2.79 1.33 3.79 5.88002 3.79 8.68002.013 1.456-.2772 2.8988-.8522 4.2365-.5751 1.3377-1.4223 2.5411-2.4878 3.5335-.16.16 1.93 1 2.35.57l.1.02z"/>
      <path fill="#82A65C" d="M45.8621 18.4631c2.29-.26 4.66-.6 6.35-2.32 2-2 3.07-5.22 3.83-7.89998l-2.46-.44001c.54 2.99999 1.1 6.36999.14 9.28999l2.44.35-1.13-1.75c-.2-.31-2.27-.79-2.43-.35-.33.93-.69 1.84-1.06 2.76l2.43.35c-.317-.4658-.7249-.8627-1.1992-1.1669-.4743-.3042-1.0052-.5093-1.5608-.6031-1.58-.21-1.51.61-2.29 1.75l2.43.35c-.7328-.6526-1.6464-1.0675-2.62-1.19-1.51-.17-2.24.7-3.69.91-.55.08.29.41.37.45.539.216 1.1256.285 1.7.2.92-.13 1.87-.87 2.74-.9l-1.93-.39 1 .65c.35.28 2.1.84 2.43.35.33-.49.43-1.3 1.12-1.6l-2.08-.25c.41.18.87.87 1.15 1.17.28.3 2.23.83 2.43.35.38-.91.73-1.83 1.06-2.76l-2.43-.35 1.13 1.75c.19.31 2.28.79 2.43.35.95-2.91.4-6.34-.15-9.27998-.08-.44-2.35-.85001-2.46-.44001-.6149 2.42709-1.6287 4.73509-3 6.82999-1.67 2.37-4.11 2.87-6.82 3.19-.56.06.3.4.37.44.539.216 1.1256.285 1.7.2h.06zM45.2621 20.2033c8.56-.48 6.76 9.12 3.26 13.46l2.47.43c.25-1.51 1-3.83.56-5.33-.15-.56-1.83-.6-2.27-.54-.6856.1878-1.3323.4959-1.91.91l2.41.5c.48-1.25 1.09-2.13-.26-2.86-.9854-.3871-2.0699-.4433-3.09-.16l2.27.54c.5572-.936 1.0581-1.9044 1.5-2.9.12-.27-1.45-.53-1.51-.53-.8604-.1224-1.7363-.0783-2.58.13l2.27.54c-.26-1.29.33-2.38-1.05-3-.47-.22-1.07-.09-1.53-.29-.86-.37 0 .14-.73-1-.33-.52-2.49-.42-2.4-.27 1.05 1.69 2.18 1.68 3.95 2l-1.16-.4c.57.78.28 1.75.46 2.62.11.53 1.88.64 2.27.54l1.06-.14-1.51-.63c-.4434.9967-.9477 1.9652-1.51 2.9-.18.3 2.05.59 2.27.54l.52-.09-1.48-.46c.79.74.08 1.7-.22 2.48-.15.37 2.12.66 2.4.5.5238-.3169 1.0722-.5911 1.64-.82l-2.27-.54c.4 1.48-.32 3.85-.57 5.33-.06.42 2.2.77 2.47.43 2.69-3.35 4.57-8.6 1.36-12.31-2.11-2.43-5.82-2.43-8.77-2.27-1.07.06 1.24.72 1.68.69z"/>
    </symbol> 
    <symbol id="icon-seeds" viewBox="0 0 21 23">
      <desc> Seeds Icon </desc>
      <path fill="#2F2D29" d="M8.98489 15.475c4.85001 0-.09-4.08-2.8-4.08-4.85 0 .09 4.08 2.8 4.08zM13.8248 5.82486c4.84 0-.09-4.09-2.81-4.09-4.84999 0 .09 4.09 2.81 4.09zM16.9849 14.1549c4.85 0-.09-4.0799-2.8-4.0799-4.85001 0 .09 4.0799 2.8 4.0799zM16.6548 22.8249c4.85 0-.09-4.09-2.8-4.09-4.84999 0 .09 4.09 2.8 4.09zM5.32481 6.47501c4.83999 0-.09-4.07999-2.81-4.07999-4.85 0 .09 4.07999 2.81 4.07999z"/>
      <path fill="#82A65C" d="M10.4849 14.3249c4.85 0-.09-4.09-2.80001-4.09-4.85 0 .09 4.09 2.80001 4.09zM15.3248 4.65494c4.84 0-.09-4.079989-2.81-4.079989-4.84999 0 .09 4.079989 2.81 4.079989zM18.4849 12.985c4.85 0-.09-4.07997-2.8-4.07997-4.85 0 .09 4.07997 2.8 4.07997zM18.1548 21.6549c4.85 0-.09-4.0799-2.8-4.0799-4.85 0 .09 4.0799 2.8 4.0799zM6.82481 5.32486c4.83999 0-.09-4.09-2.81-4.09-4.850003 0 .09 4.09 2.81 4.09z"/>
    </symbol>
    <symbol id="icon-tea" viewBox="0 0 53 22">
      <desc> Tea Icon </desc>
      <path fill="#2F2D29" d="M32.4458 6.97801c1.38 3.21999 2.64 6.51999 4.15 9.67999.68 1.42.7 1.78 2.15 2 1.45.22 2.82-.57 4.13-1.11l9.93-4.14c.07 0 .08-.09 0-.14-2.2466-4.00001-4.38-8.05666-6.4-12.17-.21-.439997-2-.67001-2.37-.42001-.5586.46124-1.2202.78112-1.9286.93256-.7085.15143-1.443.12997-2.1414-.06256-.33-.12-1.92-.639998-2.13-.18-.5572 1.25272-1.3577 2.38226-2.3551 3.323-.9974.94074-2.1718 1.67394-3.4549 2.15701 0 0 1.69.82 2.35.56 1.3066-.49817 2.5021-1.24926 3.5179-2.2102 1.0159-.96095 1.8322-2.11287 2.4021-3.38981l-2.14-.17999c2.82 1.09 5.59 1.31999 8.23-.39001l-2.38-.419985c.91 1.849995 1.83 3.699995 2.78 5.529995.74 1.41 3.25 4.75 2.67 6.23-.58 1.48-3.69 2.21-5.24 2.85-2 .86-4.45 2.35-6.66 2.61l2.24.47c-2.29-3.05-3.48-7.8-5-11.30001-.22-.52-2.51-.53-2.4-.28l.05.05002z"/>
      <path fill="#82A65C" d="M40.3857 16.688c1.07 0-1.24-.69-1.67-.69-1.06 0 1.25.69 1.67.69zM41.8158 15.938c1.06 0-1.24-.69-1.67-.69-1.07 0 1.24.69 1.67.69zM44.0958 15.358c1.07 0-1.24-.69-1.67-.69-1.06 0 1.24.69 1.67.69zM46.2657 14.358c1.06 0-1.24-.69-1.67-.69-1.07 0 1.24.69 1.67.69zM43.3458 15.938c1.07 0-1.24-.69-1.67-.69-1.06 0 1.24.69 1.67.69zM45.3458 14.938c1.07 0-1.24-.69-1.67-.69-1.06 0 1.24.69 1.67.69zM47.3857 13.7281c1.07 0-1.24-.69-1.67-.69-1.06 0 1.25.69 1.67.69zM49.0958 12.4781c1.07 0-1.24-.69-1.67-.69-1.06 0 1.24.69 1.67.69zM48.4357 13.3079c1.06 0-1.25-.69-1.68-.69-1.06 0 1.25.69 1.68.69zM40.3057 17.3079c1.06 0-1.24-.69-1.67-.69-1.06 0 1.24.69 1.67.69z"/>
      <path fill="#82A65C" fill-rule="evenodd" d="M11.2758 18.848c-3.56334 1.5336-7.31875 2.3873-11.137922 2.78C8.35788 19.338 17.2958 12.578 22.7658 6.36803c3.87-4.39 8.05-6.499983 13.72-5.29998 1.7.36.11.59-.75.41C30.3329.331252 26.5149 5.13926 23.339 9.13874c-.7566.95276-1.4767 1.85966-2.1732 2.62926-2.7381 3.0562-6.1144 5.4732-9.89 7.08z" clip-rule="evenodd"/>
    </symbol>
    <symbol id="icon-bread" viewBox="0 0 41 22">
      <desc> Bread Icon </desc>
      <path fill="#82A65C" d="M4.10144 17.0438c1.93448 3.7553 7.38346 4.1824 11.19336 4.0646 8.2695-.2209 15.1805-4.8599 21.6041-9.6019.1625-.1325-2.7171-1.399-3.4702-.8394-4.7254 3.4903-21.3088 15.4631-25.78319 6.789-.39871-.7805-3.69174-.7068-3.54407-.4123z"/>
      <path fill="#2F2D29" d="M29.2497.66754c-5.9277.65349-11.7511 2.03858-17.3365 4.12349C8.33962 6.16062.941342 8.29602.0996223 12.9055-1.17034 19.9007 10.0379 21.2998 14.5713 21.5501c8.4615.4713 19.1972-2.2679 24.5281-9.4104C44.637 4.67324 36.9138 1.83094 30.756 1.1535c-2.54-.294531-.5021.79527.8269.94254 11.8136 1.32541 3.2488 10.70636-.5168 13.25416-5.641 3.8878-25.81277 10.6769-26.93507-.1179C3.14164 5.63045 25.4841 2.37583 32.3213 1.56585c.6349 0-2.2594-1.060318-3.0568-.95723l-.0148.05892z"/>
      <path fill="#2F2D29" d="M9.96401 8.8556c1.67679-.40733 3.43119-.37021 5.08909.10773 1.6579.47793 3.1616 1.38007 4.3618 2.61677l3.3816.2798c-2.2905-1.1793-4.6764-2.16457-7.1324-2.94538-.7531-.23563-4.1348-.30926-1.9493.36817 2.0307.62783 4.0063 1.42081 5.9068 2.37101.6972.3384 1.4555.5338 2.2299.5744.1181 0 1.4767-.0001 1.137-.2946-2.1669-1.9171-4.7653-3.28483-7.575-3.98727-2.8097-.70244-5.74787-.71885-8.56531-.04787-.76789.17673.3544.57432.54637.66268.80093.3186 1.67211.42023 2.52515.29456h.0443zM22.708 4.27566c1.0851-.25736 2.2277-.09702 3.1995.44898.9717.54599 1.7012 1.43745 2.0428 2.49638l3.5883.51545c-1.4767-3.09263-5.4194-4.18239-8.6534-3.93203-.7236 0-.5907.25036-.1033.55962.8002.37813 1.6875.53575 2.5695.45653 1.1222-.08836 2.2002 1.63466 2.6432 2.51827.443.88361 3.6032.58908 3.5884.51545-1.6982-4.55058-7.7675-5.28693-11.9465-4.56532-.7827.13254.3691.60377.5464.66268.8063.29647 1.6719.39744 2.5251.29455v.02944z"/>
    </symbol>
    <symbol id="icon-bottle" viewBox="0 0 13 29">
      <desc> Bottle Icon </desc>
      <path fill="#2F2D29" d="M7.91579 28.1574H4.4958l1.51.54-1.51-10.09c-.23-1.53-.48-3.06-.68-4.59-.42-3.11-.63-1.61 1-3.48.27-.3.90999.21 1.27999-.4 1.06-1.73-.81999-7.69999-1.08999-9.609987-.08-.5799996-2.49-.6099922-2.46-.4299922C2.8258 2.09742 4.54579 7.7874 3.30579 9.2674c-.54.64-1.43.28001-1.86.82-1.249997 1.57.15001 5.37.42001 7.17l1.64 11c.06.4 1.26999.51 1.50999.54 1.66048.2032 3.33953.2032 5.00001 0 .42-.06-1.54-.72-2.08-.65l-.02001.01z"/>
      <path fill="#2F2D29" d="M6.04575 10.2475c1.06.14 2-.14 3.07-.09l-1.62001-.39005c.47.34005.48001 1.68005.58001 2.22005.13.73.28999 1.46.44999 2.19.31 1.33.65001 2.66 1.08 4 .21.64 2.46996.47 2.45996.44-.7642-2.3068-1.3263-4.6758-1.68-7.08-.13-.91-.19-1.45-1.13996-1.81003-1.27-.47-2.43.09999-3.72-.08001-1.71-.22-.32.52004.57.64004l-.04999-.04z"/>
      <path fill="#2F2D29" d="M3.15586 16.2474c1.04584.4067 2.17335.5588 3.28957.4441 1.11622-.1148 2.18918-.4932 3.13042-1.1041 0 0-.89999-.47-1.16999-.28-.64603.4894-1.39918.818-2.19728.9588-.79809.1409-1.61823.0899-2.39273-.1488-.25-.08-1.38999-.13-.65999.13zM4.82575 22.3076c2.13.67 4.93001.53 6.54005-1.19.09-.1-1.0001-.4901-1.1701-.2801-.60222.6087-1.35068 1.0524-2.17365 1.2888-.82296.2364-1.69285.2575-2.5263.0612-.26-.08-1.41-.1099-.67.1201z"/>
      <path fill="#82A65C" d="M5.1758 18.2275l-.12999 2.56c0 .42 2.32.84 2.46.43.33981-.9997.81416-1.9484 1.40999-2.82l-2.42-.44c.17617.6281.26369 1.2777.26001 1.93 0 .51 2.47.72 2.47.43-.00145-.6487-.08888-1.2943-.26-1.92-.1-.35-.90001-.44-1.19001-.49-.29-.05-1.07-.24-1.28 0-.59467.8744-1.06578 1.8267-1.4 2.83l2.46.43.13001-2.56c0-.48-2.44-.76-2.46-.43l-.05001.05zM6.16583 26.8073c.32.16.59.4.92.53.66174.2708 1.37655.3871 2.09.34.15495.0039.30795-.0351.44208-.1128.13414-.0776.24417-.1909.31793-.3272.05758-.1346.07016-.2842.03596-.4265-.03423-.1423-.11348-.2698-.22597-.3635-.43828-.2936-.9525-.4534-1.48-.46-.09 0-1.14 0-.92.18.22.18.12.52 0 .81-.12.29 0 .21.74.15.77.22 1 .25.73.08l-.23-.15c-.19-.12-.39-.22-.59-.32-.54832-.2362-1.14385-.3423-1.73999-.31-.45 0-.48.19-.07.38h-.02001z"/>
    </symbol>
    <symbol id="icon-gum" viewBox="0 0 27 24">
      <desc> Gum Icon </desc>
      <path fill="#2F2D29" d="M17.6469 1.05923c-4-1.550002-9.22003-2.07997-10.14003 3.28003-.49 2.87-1.37001 3.58996-3.73002 5.20996-1.15213.69548-2.0899 1.69558-2.70999 2.88998-.252698.466-.410249.9776-.463498 1.505-.053248.5275-.001137 1.0602.153321 1.5673.154457.5071.408177.9785.746397 1.3867.33823.4081.75422.745 1.22379.991.70486.3127 1.4536.515 2.21998.6 1.8881.1822 3.65486 1.0126 5 2.3501 1.21005 1.13 1.87005 1.9999 3.61005 2.2299 2.07.29 3.27-.54 4.71-2 2-2 2.4-1.91 5.15-2.81 1.2019-.2979 2.2627-1.005 3-2 0 0-2-1-2.46-.43-2.07 2.5-3.7 1.23-5.82 2.43-1.62.92-2.91 4.42-5.11 3.6-1-.39-1.74-2.46-2.89-3.12-.74474-.3606-1.54088-.6034-2.36005-.7199-2-.35-4.12999.1399-4.63999-2.5301-.45-2.32 1.34-4.17 3.05-5.42 1.53-1.11996 3.00001-1.49999 3.65001-3.39999 1.00003-3.07.44003-7.73995 6.06003-5.57995.4.15 2.8.30998 1.81-.08002l-.06.04999z"/>
      <path fill="#82A65C" d="M12.2669 5.0594c-.8525 1.01045-1.3543 2.27017-1.43 3.59003-.1815 1.47657-.89208 2.83717-2.00004 3.82997-1.68 1.93.52 2.47 2.09004 3.21.39.18 2.79.38 1.81-.07-.6235-.2063-1.1938-.5478-1.67-1-.61-.71-.54-.63 0-1.36.621-.6675 1.1925-1.3794 1.71-2.13.3548-.828.5385-1.71918.54-2.61999.1681-1.11784.662-2.16132 1.42-3 0 0-2-.99999-2.47-.42999V5.0594z"/>
    </symbol>
    <symbol id="icon-medicine" viewBox="0 0 25 26">
      <desc> Medicine Icon </desc>
      <path fill="#82A65C" d="M6.62478 2.85082c2.61.79 6.91002 1.27 8.75002-1.24.15-.22-1.49-.53997-1.52-.53997-2-.230003-5.00001-.27002-6.50001 1.41998-.1.11.55998.34003.56998.34003.97406.31714 2.01359.37696 3.01763.1737 1.004-.20325 1.9384-.66271 2.7124-1.33374.0666-.04.0666-.08996 0-.14996-1.33-1.4700008-3.89001-.999993-5.43001-.17999-.26.14 1.74.64999 2.00001.61999 1.25-.12 2.39-.77001 3.66-.70001.38 0 .69.00001.51-.299988-.18-.3-1.37-.370015-1.67-.390015-.6507-.058494-1.3063-.031582-1.95.080017-.7251.256653-1.46685.463786-2.22002.619996l2.00002.63c.5401-.36605 1.1687-.58018 1.82-.61999l-1.49-.309999c.64.259999-.82.919999-.92002.999999-.59402.30468-1.24393.48499-1.91.52997l1.5.22003-.35001-.11004.57001.34002c1.00002-1.18 3.15002-1.37002 4.60002-1.21002l-1.52-.53998c-.6065.69557-1.4013 1.20072-2.2885 1.45447-.88726.25375-1.82899.24525-2.71151-.02448-.34-.11-1.39001-.45001-1.70001-.20001-.31.25.00001.33001.38001.45001l.08999-.03002z"/>
      <path fill="#2F2D29" d="M3.62482 7.80085c-1.07-2.69.81999-2.76 2.73999-3.32.3-.09.78002.23005 1.08002.05005 1.45-.84.4-.11002 1.41-1.33002-.27-1 .13998-1.67002 1.22997-2.08002 1.6509-.289002 3.324-.432877 5-.429992l-2.07-.559997c.32 1.889999.15 2.780009 1.57 3.700009 1.42.92 3.73-.47001 5 .23999 2.64 1.49 1.78 9.47003 1.74 12.33003 0 3.44.72 6-3.06 7.65-2.3 1-13.87997 1.8-13.72997-2.46 0-.49-2.44999-.75-2.45999-.44-.13 3.77 4.94997 3.93 7.75997 4.19 2.80999.26 11.61999 1 13.43999-1.82 1.53-2.33.57-7.84.49-10.5-.06-1.93.56-7.35006-1.09-8.92006-2.76-2.61-6.29 1.92002-7.19-3.539977-.09-.4999995-1.69-.56999706-2.07-.55999706C11.0319.0636043 8.65921.338025 6.32484.820873c-.03924-.002728-.07851.005118-.11368.022705-.03518.017588-.06498.044248-.08634.077271.34 1.240001.69001 2.260001-.86999 3.000001l1.83999.15002c-2.79-.84-7.620002-.99998-5.85 3.45002.2.51 2.50999.53995 2.39999.26995l-.01999.01001z"/>
      <path fill="#2F2D29" d="M4.62479 9.13083C10.6248 10.8908 17.1048 11.6408 22.4648 7.87082c.1-.07-1.82-.93-2.35-.56-4.31 2.99998-9.14 2.99998-14.16002 1.58002-.52-.16-2.81999-.19001-1.32999.23999zM4.51478 21.1207c5.15 2.33 13.22002 1.79 17.89002-1.38.1-.07-1.81-.93-2.35-.57-3.3 2.25-10.08002 3.53-13.73002 1.88-.39-.18-2.79-.37-1.81.07z"/>
      <path fill="#82A65C" d="M12.0747 12.0709c.16 2.4567.19 4.9201.09 7.38 0 .48 2.45.75 2.46.43.1051-2.4565.0751-4.9169-.09-7.37 0-.55-2.47-.67-2.46-.44z"/>
      <path fill="#82A65C" d="M10.6248 16.2408l8.44-.56c.53 0 .34-.17.07-.39-.5457-.2556-1.1503-.3592-1.75-.3l-8.43001.56c-.54 0-.33998.17-.06998.39.54229.2553 1.14359.3589 1.73999.3z"/>
    </symbol>
    <symbol id="icon-plastic" viewBox="0 0 19 30">
      <desc> Plastic Icon </desc>
      <path fill="#82A65C" d="M4.08545 3.69128c.06332.25831.08899.52472.07615.79066l1.68238.24711c-.14196-.34828-.23968-.71365-.29079-1.08719L3.87082 3.3948c.29656.3217.51268.71157.63003 1.13656l1.68237.24706c-.19072-.44725-.30319-.92509-.33232-1.41189L4.16852 3.1124c.23465.24264.38326.55814.42233.89657l1.68237.25413c-.12377-.12566-.23295-.26539-.3254-.41649-.08308-.14119 0-.2471-.11769-.2471l-1.03851-.15529c-.2077-.06354-.14538.23999-.14538.32471l1.68237.2471c-.11933-.1762-.20182-.37558-.24231-.58569-.0405-.21011-.03814-.42648.00692-.63562l-1.68238-.25413c.35873.40871.66575.86173.91388 1.34838.1454.30355.04847.38825-.22154.55061-.23991.14192-.50235.2399-.77542.28947-.36001.07059.17308.2894.26309.31764.37586.14126.77922.18965 1.17697.14119.51028-.0861.9885-.3104 1.38467-.64945.04154 0 .04846-.05649 0-.09885-.26745-.62128-.62964-1.19547-1.07312-1.70131-.15232-.17649-1.62699-.57891-1.68238-.25417-.0455.23103-.04441.4691.0032.6997.04761.23059.14075.4489.27374.64161.13847.20473 1.67545.51533 1.68237.24707.0224-.12363.00952-.2512-.03712-.36758-.04664-.11639-.12506-.21669-.22596-.28895-.40994-.21657-.86792-.32115-1.32929-.30355-.17308 0-.52617.00003-.58848.20475-.06231.20473.2977.593.44309.7483.14539.15531 1.71007.49416 1.68237.25413-.04111-.37948-.2042-.73442-.46386-1.00949-.15231-.16237-1.70314-.52244-1.68237-.25418.03312.52489.15981 1.03925.37386 1.5178.14539.3318 1.70314.33884 1.68237.24707-.11355-.47288-.33673-.91107-.65079-1.27776-.15924-.17649-1.71699-.48003-1.68238-.24707.05858.41319.17032.81671.33233 1.20012.10385.24708 1.67545.48709 1.68237.24706.01243-.26592-.01322-.53227-.07616-.79065-.05539-.24002-.6231-.3106-.81695-.33884-.06231 0-.92081-.11295-.88619 0l-.02769.07764z"/>
      <path fill="#2F2D29" d="M15.9105 14.0264c-.5539-2.026-1.087-4.05916-1.6685-6.07817-.3047-1.05892-.4501-2.11788-1.4747-2.64028-.5794-.25824-1.2102-.37429-1.8416-.33884-1.05929 0-1.53007.70593-2.5755-.14826-.92773-.70595-1.0385-2.3437-1.17004-3.44498-.04154-.31768-1.46775-.550638-1.66853-.35297-.76521.75576-1.64698 1.37822-2.61009 1.84251 0 0 1.19773.60711 1.62698.39532.96311-.46429 1.84488-1.08674 2.6101-1.84251l-1.66853-.34595c.31848 2.57671 1.44006 4.70162 4.15401 4.77928 1.5231.04941 1.9801-.93891 2.6378.92478.7962 2.23785 1.2877 4.64517 1.9039 6.93947.1246.4447 1.7239.36 1.7101.3106h.0346z"/>
      <path fill="#2F2D29" d="M3.03304 2.71015c.35309 1.08009.85157 2.44259.50541 3.59328-.54002 1.80017-1.1562 1.12952-2.15316 2.07549C.00061867 9.69198.506023 11.2874 1.11528 12.8264c1.23235 3.1132 2.64471 6.0217 3.39935 9.3396.43618 1.892.40156 4.2004 1.46083 5.8735 1.05927 1.6731 3.18474 2.1179 5.04024 1.8284 1.9655-.3623 3.8368-1.1337 5.4971-2.2661 1.9178-1.2777 2.3401-2.4355 1.7239-4.8145-.1177-.4377-1.7239-.3601-1.7101-.3036.4916 1.8919.367 3.1344-1.2254 4.4334-1.1823.9682-2.5573 1.662-4.0294 2.0331-1.99391.2894-3.53781-.0353-4.15399-1.9767-.22167-.8511-.3859-1.7168-.49155-2.5908-.34604-1.9147-.82495-3.802-1.43314-5.6476-.82387-2.4567-3.7386-6.3041-2.83856-8.83136.47078-1.3413 1.91776-1.41189 2.61009-2.51317.80311-1.27776.21463-3.0638-.20769-4.36274-.14539-.45181-1.71007-.33179-1.70315-.30355l-.02077-.01413z"/>
      <path fill="#82A65C" d="M2.86688 13.2921c1.72918 2.8294 2.8588 5.9963 3.31628 9.2973.24924 1.9343.09693 3.7062 1.75161 4.984.28385.2189 1.78622.2894 1.50236.0706-1.98007-1.5319-1.53006-5.4287-2.12546-7.6948-.61342-2.28-1.54613-4.458-2.76934-6.4665-.22155-.3671-1.73083-.3036-1.6616-.1906h-.01385z"/>
    </symbol>
    <symbol id="icon-metal" viewBox="0 0 17 28">
      <desc> Metal Icon </desc>
      <path fill="#2F2D29" d="M1.32864 5.48128c2.56086.97462 5.30403 1.40897 8.04914 1.27449 1.11232-.06787 7.88692-.92006 6.27242-3.12969C13.9354 1.28071.911505 1.25053.973303 4.55366c0 .39215 1.908007.52793 1.900277.32432 0-1.02563 2.21699-1.64407 2.95084-1.8326 1.32092-.33936 9.14608-.82951 8.15728 1.03321-1.6685 3.16738-8.96065 2.19452-11.30123 1.34234-.30899-.11312-2.170642-.21868-1.39817.06035h.04634z"/>
      <path fill="#2F2D29" d="M.942439 5.02121L.517578 20.6846c-.108146 3.9743.169944 5.0301 4.117272 6.365 2.27216.7723 4.68924 1.0528 7.08355.822.9192-.0905 2.8041-.2715 3.6383-.8597 1.4523-1.0332 1.0506-2.9487 1.1433-4.6078 0-.3545-1.8848-.5732-1.9003-.3243-.1545 2.6772 0 4.5248-3.1826 5.113-3.18254.5883-7.97958-.1055-9.07649-3.3332-.32444-.9578.06952-2.5717.09269-3.5596l.40941-14.95452c0-.36953-1.892547-.55052-1.900271-.32427zM14.3216 4.26715c.1313 2.59424.1468 5.19598.2781 7.79025 0 .4072 1.908.5128 1.9003.3318-.1313-2.60178-.1468-5.20354-.2781-7.79777 0-.40724-1.908-.51281-1.9003-.32428z"/>
      <path fill="#82A65C" d="M2.9817 10.202l-.44804 9.2759c-.10042 2.0739-.5948 4.2081 1.22823 5.6862.95014.7542 3.20575 1.825 4.18679.6184 0 0-1.54494-.7541-1.90027-.3243-.71068.8598-1.67626-2.745-1.72261-3.3332-.0203-1.355.04419-2.71.19312-4.0573l.36305-7.5414c0-.362-1.89255-.57313-1.90027-.3318v.0075zM10.3356 26.3709c.8188 0-.95783-.5203-1.29-.5203-.82654 0 .9579.5203 1.29.5203zM4.58078 1.06199c.07108.60447.27488 1.18686.59749 1.70744.32261.52058.75644.96711 1.2719 1.30911.39279.20897.83511.313 1.28229.30163.15449 0 .7184.00001.39397-.22623-.46111-.32645-.84615-.74456-1.12975-1.22681-.2836-.48225-.45933-1.01771-.51562-1.57106-.04635-.429862-1.92345-.482647-1.90028-.32428v.0302z"/>
    </symbol>
    <symbol id="icon-paint" viewBox="0 0 21 24">
      <desc> Paint Icon </desc>
      <path fill="#82A65C" d="M9.05656 12.8907c.79349-1.3954 2.07694-2.451 3.60474-2.96482.4453-.09811.9057-.10754 1.3546-.02772.4489.07982.8774.24724 1.2608.49264.3833.2455.7139.5641.9725.9373.2587.3731.4403.7936.5344 1.237v.5141c-.1897.4456 0 .7027.4484.7884.7072.4455.6727.3769 0-.1886l-.5864-.497c-.5194-.5571-1.0976-1.057-1.7248-1.491h-1.535c.307.3.5632.6472.7589 1.0282l4.1395.48-1.4144-1.8852-3.9497-.3256c.279.1184.5104.3261.6572.59.1469.2638.2008.5689.1534.8667l3.6911.3085c-.9142-.3942-1.1211-1.5595-1.811-2.1936-.496-.4473-1.0848-.78078-1.7248-.9769-1.3868-.56659-2.9425-.56659-4.32924 0-.37945.20565.37943.497.46564.5484.6915.2639 1.2619.7697 1.6041 1.4224h3.2081c-1.2936-.4627-2.6044-.8398-3.9325-1.1825-.2242 0-3.10464-.2742-2.70794.1199.37815.3542.78168.6807 1.20737.9769l3.75997.1885-1.052-.6169-1.3972.4627h.552c2.9666.2914.5864-.9426-.9659-1.0968h-.55194c-.15523 0-2.32846 0-1.39707.4627l1.05214.5998c.88687.4654 1.87747.7012 2.88037.6856.3449 0 1.5868-.0001.8796-.4971l-.8279-.7026-2.70784.12c1.00034.257 1.94894.5655 2.93214.8911.3622.1371 3.553.5484 3.2081 0-.6367-.9365-1.554-1.6499-2.6217-2.03932l.4657.54832.1207-.1542-2.8631-.66839c1.4833.73689 1.7248 2.46779 3.4496 3.17049.3449.1371 3.7082.9255 3.6737.3085.0007-.4245-.1207-.8404-.3498-1.1987-.2292-.3583-.5566-.644-.9438-.8236-.5346-.3256-4.2429-.7197-3.9497-.3255l1.4143 1.8679c1.2722.6645 2.7475.8355 4.1395.4799-.4982-.7488-1.1512-1.3838-1.9155-1.8625-.7642-.4787-1.6223-.7901-2.5172-.9138-.7071-.1542-3.3633-.77123-3.3461.4798 0 .5313 1.6213 1.5938 1.9663 1.8851.7026.6415 1.465 1.2154 2.2767 1.7138 1.4465.789 3.1038 1.1125 4.7431.9255 1.9146-.3599 1.7248-2.0736.8797-3.4275-1.1111-1.4727-2.7127-2.5053-4.5189-2.91348C11.73 7.7836 7.24557 8.21204 4.77913 12.1195c-.10349.1713 3.67377 1.7137 4.24295.7369l.03448.0343zM4.26151 10.4914c.14782-1.98363.83321-3.89046 1.98349-5.51834.76604-1.02771 1.78044-1.84702 2.94942-2.38218 1.48328-.66838 2.19048.51409.72438 1.45667-1.46607.94258-3.44956.20565-5.05361.95971C3.1652 6.015 1.80303 7.49976.949954 9.27467l4.242956.73693c-.31046-1.83377 1.36257-3.599 2.79414-4.54158.91647-.55907 1.92752-.94809 2.98385-1.14821.5175-.1371 1.3109-.13709 1.5351-.73691.3967-1.1311-1.6041-1.45679-2.3285-1.57676-.57631-.17631-1.19039-.19115-1.77468-.04299-.58428.14817-1.11607.45368-1.53687.88284-.25872.23992 3.27715 1.71377 4.05325.95971.2242-.18852.6554-.70269.9659-.78838l-3.67382-.63409c.77615.47986-1.84554 1.02822-2.17324 1.13105-.94621.28429-1.82987.7437-2.60445 1.35395C2.15725 5.88137.656741 7.56088.949954 9.27467c.120736.78833 3.846256 1.42243 4.242956.73693.96588-1.59384 2.12148-3.58183 4.03599-4.18165 1.2418-.39417 2.5182.1371 3.7945-.32562 3.3289-1.18251 1.5868-3.25625-.8279-4.02745C5.88282-.528248.742949 3.39632.00129176 9.73732-.0849474 10.4914 4.17527 11.1083 4.26151 10.4914zM8.41838 18.1519c-.87964-.1885-1.05212-.1543-.48294.137.24157.1604.46179.3504.65543.5656.3419.3637.62153.7805.82786 1.234.25872.5827.87967 2.5021-.1897 2.6735h1.31087c2.1732.2056 1.4315.5655 1.1556-.5656-.0863-.3256-.0863-.6684-.1553-.9769-.2022-.6491-.5637-1.238-1.0521-1.7137-1.06761-1.138-2.47763-1.9017-4.01874-2.1766-.44844-.0857-2.32847-.6169-2.65618-.137-.32771.4799 1.12114.7883 1.37986.8397.65542.1371 1.62127 1.4224 1.91449 1.988.44844.8569.20697 1.9023.91413 2.6735.82829.6688 1.84901 1.0589 2.91484 1.114.8279.1199 2.225.377 2.8459-.36 1.0866-1.2853-.6036-3.7874-1.5867-4.61-1.9551-1.3254-4.29433-1.9756-6.65773-1.8509-.7934 0-.74162.377-.1207.6683.95408.3749 1.97578.55 3.00111.5143v-.0172z"/>
    </symbol>
    <symbol id="icon-trash" viewBox="0 0 9 32">
      <desc> Trash Icon </desc>
      <path fill="#2F2D29" d="M2.0772 6.74488C2.68091 13.384 3.5194 19.9931 4.59266 26.5722c.08385.4824 2.08783.4824 2.06267.3516-1.11798-6.5846-1.95646-13.1937-2.51546-19.82735-.04192-.45787-2.07944-.53145-2.07106-.35157h.00839z"/>
      <path fill="#2F2D29" d="M3.31817 6.30338c-.59075-.76617-.86865-1.71899-.7798-2.67364 0-.41699.40247-2.15036 1.05649-2.1013l-1.24934-.24528c.75464.33523.62048 1.81513.59532 2.45287.05535.89247-.24507 1.77128-.83848 2.45287-.14255.14718 1.62666.81763 1.97044.45787.97264-.97297 1.03134-2.29754.94749-3.59756.01818-.25225-.01533-.50548-.09856-.74497-.08323-.23949-.21452-.46044-.38623-.64994-.1717-.1895-.38037-.34378-.61385-.45383-.23347-.11005-.48708-.17365-.74603-.18714C1.98497.808927 1.21356 1.07059.752394 2.21527.514158 2.85414.443065 3.54085.545549 4.21326c.102484.67242.375314 1.30928.793791 1.85298.218.28617.91394.33524 1.24095.36794.10062 0 .93072.06542.77141-.14717l-.03353.01637zM4.13148 26.6541c-1.03972 2.044-.15931 4.7504 2.26392 5.2246 1.18226.2289 2.0459-.0573 2.10459-1.39-.025-1.2943-.54887-2.532-1.46735-3.4667-.36411-.2469-.79747-.3782-1.24095-.3761-.08385 0-.94749-.0409-.77141.1472.61978.6523 1.06351 1.4446 1.29127 2.3057.15093.6296.35216 2.1421-.60371 2.322l1.18226.0981c-.20962-.049-.54501-.695-.65402-.883-.23368-.4045-.38727-.8483-.45278-1.3082-.10538-.7967.0378-1.6058.41086-2.322.07546-.139-1.84467-.7768-2.06268-.3516z"/>
      <path fill="#82A65C" d="M2.37906 6.90024c.5534 6.47556 1.54282 12.89396 2.56577 19.32046 0 .2371 1.03973.2453 1.03134.1717C4.95322 19.9741 3.9638 13.5557 3.4104 7.08009c0-.22893-1.03972-.26979-1.03134-.17985z"/>
    </symbol>
    <symbol id="icon-bone" viewBox="0 0 25 34">
      <desc> Bone Icon </desc>
      <path fill="#82A65C" d="M11.637 2.57118c-2.77996.47.0001 3.77999.1701 5.10999.36 2.79003-1.87007 5.22003-2.77007 7.70003-.09.26 2.28997.92 2.46997.43.75-2.09 2.2601-3.92 2.6801-6.12002.2021-.91403.129-1.86743-.2101-2.73999-.34-.86-2.28-3.39004-.27-3.73004.45-.08-1.54-.74997-2.07-.64997zM4.33707 25.7112c-.55.16-1.24001.2-1.60001.71-.36.51.00001 1.15.20001 1.61.57 1.29 2.33998 1.59 3.59998 1.41.54-.07-.26-.41-.37-.45-.54741-.1805-1.12563-.2485-1.69998-.2l1.28998.16-.12-.13c-.08-.14-.19-.27-.26-.42-.14652-.3009-.25083-.6206-.31-.95-.11-.82.73999-.92 1.33999-1.09.6-.17-.19999-.4001-.36999-.4501-.54055-.2096-1.12552-.2784-1.69998-.1999z"/>
      <path fill="#2F2D29" d="M2.66704 24.6411c-5.17 2.61.53001 6.52 4.16001 5.38l-2.26999-.5501c-.45 3.17 2.94998 5.0001 5.82994 4.1201.5037-.1639.9698-.4261 1.3712-.7715.4015-.3454.7304-.7671.9676-1.2406.2372-.4735.378-.9894.4143-1.5178.0363-.5284-.0327-1.0586-.203-1.5601-.74-2.67-1.7201-2.84-.8001-5.8.69-2.21 2.2701-4.47 3.3601-6.52 1-1.83 1.9999-5 3.5099-6.44004 1.51-1.44 3.45-1.19001 4.62-2.64001.2952-.34291.5146-.74435.6437-1.17798.1291-.43363.1651-.88961.1056-1.33813-.0595-.44852-.2131-.87943-.4508-1.26441-.2377-.38498-.5541-.71537-.9284-.96948-3.13-2.3900007-6.3201-.30001-7.8901 2.61999l2.46.44001c-.93-2.42-6.37-6.60996-8.76995-3.13996-.20745.39457-.30827.83643-.29248 1.28192.01578.4455.14762.87917.38247 1.25806 1 2.06 2.82996 1.79001 2.51996 4.51001-.27 2.43002-2.12996 5.48002-3.14996 7.73002-1.26 2.82-2.66998 5.57-4.13998 8.29-.08.14 2.17999 1 2.45999.43 2.7282-4.8546 5.06885-9.917 6.99995-15.14.51-1.47002.8601-2.00001.3501-3.30001 0 0-2.2501-2.58003-1.8501-1.91003-1.7-1.24-1.5499-1.87664.4501-1.90998 1.4933-.99333 2.3599-.5067 2.5999 1.45996.17.43 2.2301.88001 2.4601.44001.4874-1.0792 1.1881-2.04862 2.06-2.84998 2 .4 2.7366 1.37332 2.2099 2.91998-.67 2.51-2 1.68002-3.59 2.45002-2.6 1.28-3.9 5.34003-5.22 7.82003-1 2-4.72996 6.9999-4.40996 9.2199.26 1.73 2.09006 2.1501 2.07006 4.3901 0 3.47-4.17006 4.0899-3.67006.5499.07-.45-1.99999-.6299-2.26999-.5399-1.46-.55-2.00001-1.33-1.51001-2.33.08098-.4486.29343-.863.61035-1.1906.31692-.3276.72402-.5536 1.16965-.6494 0 0-1.73998-.87-2.34998-.56h-.02002z"/>
    </symbol>
    <symbol id="icon-oil" viewBox="0 0 49 27">
      <desc> Oil Icon </desc>
      <path fill="#2F2D29" d="M37.5145 10.6489c-3.31.16-13.52 1.7-11.91 7.12 1 3.45 7.25 4.26 10.22 4.43 3.73.21 11.18-.86 12.1-5.49.92-4.63-7.6-5.19-10.43-5.65-1.4-.23-1.5301.3-.0901.54 3.52.58 10.65 1.88 7 6.39-1.0387 1.1114-2.2943 1.9981-3.6892 2.6052-1.3949.6072-2.8995.9219-4.4207.9248-3.58 0-11.71-2.59-6.87-7.07 2.45-2.27 6.6-3 9.74-3.11 1.08-.06-1.24-.72-1.67-.69h.02z"/>
      <path fill="#2F2D29" d="M25.1046 16.9988c-3.41 11.48 26.9 13.12 22.81-.61-.19-.63-2.48-.5-2.47-.44 3.5 11.73-21.0901 12.3-17.8801 1.48.1-.31-2.3199-.9-2.4599-.43z"/>
      <path fill="#2F2D29" d="M7.21451 17.9987c6.38459.2934 12.78039.2466 19.15999-.14 1.88-.11 1.69-.75.27-1.53-2.1968-.9787-4.601-1.4012-7-1.23-5.6965.3549-11.40805.405-17.10998.15-1.18 0-3.139999-.18-1.999999 1.17 1.139999 1.35 5.169999 1.51 6.659999 1.58h.01999z"/>
      <path fill="#82A65C" d="M40.6844 8.80885c-.74-1.51-1.46-3.22-.75-4.87.3968-.71087.9146-1.34707 1.53-1.88l.36-.23999h-.74c-.15.07-.4.65002-.62.83002-1 .8-1.78 1.09995-2.08 2.44995-.1699.54675-.2141 1.12486-.1293 1.6911.0849.56624.2965 1.10599.6193 1.57892.28.34 1.08.41001 1.49.45001.1 0 1.11.07001.91-.17999-.2846-.41626-.4743-.89001-.5555-1.3877-.0812-.49769-.052-1.00715.0855-1.49231.23-1.28.87-1.71999 1.86-2.42999 1.34-1 .78-1.89004-.69-2.23004-.6967-.21062-1.4418-.197458-2.1306.03753-.6889.23499-1.2867.67998-1.7094 1.27246-1.57 1.92-.83 4.10004.15 6.10004.26.52 2.51.48997 2.4.27997v.02002zM44.5345 10.4388c.2622-.79773.7356-1.5096 1.3699-2.05995.267-.22299.559-.41428.8701-.57001l.36-.14002c-.84-.36-1.13-.36999-.87-.05999 0 .22.3.38003 0 .60003h1.22c-.945-.24-1.935-.24-2.88 0-.8797.35128-1.6061 1.00327-2.05 1.83994-.07.1 2.12 1 2.46.44.3461-.62237.8496-1.14305 1.46-1.50998.21-.12 1.26-.35.33-.31.39 0 .82.17 1.21.18 1.3 0 .79-1.08997 0-1.46997-.5532-.26185-1.1565-.40083-1.7685-.40741-.6119-.00659-1.2181.11938-1.7768.36926-.5586.24988-1.0566.61774-1.4596 1.07831-.403.46057-.7016 1.00295-.8751 1.58989-.1.27 2.29.92 2.46.44l-.06-.0101zM45.6745 5.18887c.0626-.47935.2487-.93422.54-1.32001.1509-.18269.3258-.34413.52-.47998.1086-.07992.226-.14705.35-.20001.35-.17.45.00003-.3-.15997l-1-.32001c.09 0 .54.49999.34.60999l2.08.23999c-.882-.48121-1.9062-.63359-2.89-.43-.3588.12102-.6838.32558-.948.59681-.2643.27122-.4603.60134-.572.96319-.08.38 2.38.83999 2.46.42999.0979-.35647.2928-.67884.5629-.93127.27-.25243.6048-.42505.9671-.49872l-1.09-.04999h.15l-1-.32c.4518.24545.9369.42395 1.44.52996.21 0 1.24.25002 1.38-.10998.14-.36-.25-.65997-.4-.77997-.5915-.35605-1.2666-.54921-1.9569-.55975-.6903-.01054-1.371.16192-1.9731.49975-.5547.46421-.9122 1.12196-1 1.83997-.06.42 2.41.80999 2.46.42999l-.12.02002z"/>
    </symbol>
    <symbol id="icon-skull" viewBox="0 0 27 29">
      <desc> Skull Icon </desc>
      <path fill="#2F2D29" d="M7.42165 17.8501c-3.09-4.87-3.4-11.80003 1.9-15.39003.88355-.55644 1.87325-.92304 2.90605-1.07648 1.0329-.15344 2.0864-.09036 3.0936.18518s1.946.75756 2.7569 1.41541 1.4762 1.47715 1.9535 2.40588c1.45 2.85 1.2299 5.84994.6999 8.85994-.35 2-.56 3.25.44 5.06 1.31 2.36 3.5 3.7401.48 5.7301-2.27 1.5-8.1799 3.7999-10.5499 2.15-1.86005-1.29-2.48005-6.8-3.05005-8.93-.17-.63-2.48-.52-2.46-.44.72 2.71 1 8.5499 3.47 10.1699 1.50995 1 4.83995.5301 6.34995.3401 2.38-.29 10-1.59 10.6-4.57.28-1.41-1.8699-3.14-2.4399-4.17-1.49-2.71-.05-5.09.07-7.93.26-6.59002-4.6001-11.7500186-11.1901-11.500019C3.16165.520081.611649 10.6401 5.02165 17.5801c.33.52 2.49.41 2.4.27z"/>
      <path fill="#2F2D29" d="M10.7016 20.38c.8467 2.4933 1.7667 4.9567 2.76 7.39.21.51 2.5001.54 2.4001.27-.9667-2.38-1.8667-4.79-2.7001-7.23-.22-.64-2.47-.46-2.46-.43zM16.3517 18.9102c1.2345 2.0458 2.3335 4.1703 3.29 6.36.22.52 2.51.52 2.4.27-.9545-2.1874-2.0536-4.3088-3.29-6.35-.32-.53-2.49-.43-2.4-.28zM11.7517 14.1c.2087.5337.3498 1.0913.42 1.66.08.58 2.49.62 2.46.44-.0689-.5722-.21-1.1333-.42-1.67-.14-.34-.87-.43-1.19-.48-.08 0-1.34-.13-1.27.05z"/>
      <path fill="#82A65C" d="M16.5617 10.35c1.6866-2.84669 3.27-5.75005 4.75-8.71005.09-.16-2.2-.999991-2.46-.42999-1.48 2.96-3.0634 5.86001-4.75 8.70001-.07.12003 2.14 1.00003 2.46.44003z"/>
      <path fill="#82A65C" d="M11.9617 2.9001c3 1.77 5.72 4 8.53 6 .5058.29321 1.0862.4322 1.67.39996.19 0 .93.00002.51-.28998-2.81-2-5.56-4.22-8.54-6-.5115-.27763-1.0884-.41237-1.67-.39001-.15 0-1 .00004-.5.29004V2.9001zM7.34169 14.1198c1.33-2.67 2.62999-5.35996 3.88001-8.06996.09-.19-2.22002-.95-2.46002-.43-1.26 2.71-2.54999 5.38996-3.87999 8.05996-.09.17 2.2 1 2.46.44z"/>
      <path fill="#82A65C" d="M1.11166 6.4999l9.82004 5.69c.5079.287 1.0875.4224 1.67.39.14 0 1 0 .51-.29L3.29166 6.59993c-.50888-.28542-1.08703-.42392-1.67-.40002-.13 0-1-.00001-.51.29999z"/>
    </symbol>
    <symbol id="icon-cigarrete" viewBox="0 0 35 34">
      <desc> Cigarrete Icon </desc>
      <path fill="#2F2D29" d="M5.39502 33.3479c9.53998-4.3266 19.17668-8.4366 28.90998-12.33-.06 0-3.39-1.6499-4.7-1.1299-9.7333 3.8867-19.37 7.9999-28.909993 12.34 0 0 3.430013 1.6999 4.700013 1.1199z"/>
      <path fill="#82A65C" d="M30.925.248169c-2.15 1.090001-2.34 3.000001-1.35 5.000001 1.48 3 3.39 6.46993.72 9.46993-.19.21 2 1 2.34.56 1.73-1.94 1.75-4.2699.86-6.64993-1-2.62-3.95-6.00003-.22-7.850032 0 0-1.74-.869998-2.35-.559998v.030029zM4.60508 30.188c1.03399.5376 2.11948.9697 3.24002 1.29.53812.2193 1.12566.2884 1.69998.2.46002-.16-.18-.39-.38-.45-.82421-.2287-1.62197-.5438-2.38001-.94-.52192-.2492-1.09166-.3823-1.66998-.3901-.15 0-1.00001.0001-.51001.2901z"/>
    </symbol>
    <symbol id="icon-leather" viewBox="0 0 27 29">
      <desc> Leather Icon </desc>
      <path fill="#2F2D29" d="M3.73553 5.33518L20.6455 2.86515l-2.24-.45996c1.2733 3.08551 2.1276 6.32769 2.54 9.64001.22 1.44.41 2.89.69 4.32.18.92 1.36 3.71 1.09 4.53-1 3-7.35 3.16-9.83 3.3-1.5.09-3.56996.53-4.99996.19-2.53-.59-2.82003-2.54-3.43003-4.8-.16-.62-2.47999-.51-2.45999-.43.7 2.62.59002 5.34 3.55002 5.93 3.8.76 8.87996.07 12.70996-.5 1.82-.27 4.46-.69 5.9-2 1.44-1.31.71-2.35.25-4.4-1.19-5.25-1.36-10.57003-3.58-15.55003-.22-.49-1.79-.53002-2.24-.46002L1.68551 4.64518c-.43.07 1.54002.73002 2.08002.65002l-.03.03998z"/>
      <path fill="#82A65C" d="M8.7356.395338l.64999 5.619992c.06.57 2.49001.64001 2.46001.44001l-.63-5.630009c-.06-.57-2.48002-.629993-2.46002-.429993H8.7356zM18.3855 12.7352l7.86-1c.55-.07-.27-.4099-.37-.4499-.5441-.1951-1.1255-.2635-1.7-.2001l-7.86 1c-.55.07.27.4101.37.4501.5429.2001 1.1255.2686 1.7.1999zM12.4955 24.1453l.74 4c.11.6 2.49.57 2.46.43l-.74-4c-.11-.6-2.49-.57-2.46-.43zM18.9355 4.32529c.5191-1.30339 1.2638-2.50509 2.2-3.549983.24-.26-.66-.44999-.8-.48999-.14-.04-1.3-.3500072-1.54-.070007-.9877 1.07764-1.7735 2.32414-2.32 3.67999-.09.24 2.27.92999 2.46.42999zM20.2555 20.2352l3.62 3.12c.4418.2862.9538.4453 1.48.46.1 0 1.14 0 .92-.18l-3.63-3.13c-.4413-.286-.9542-.442-1.48-.45-.09 0-1.14 0-.91.18zM4.22547 23.0153c-1.03215 1.3341-2.24746 2.5158-3.609987 3.51-.28.21.719987.46.799987.48.35.09 1.20999.33 1.54999.08 1.40421-1.0294 2.6565-2.2514 3.72-3.63.14-.18-1.08999-.4699-1.17999-.4899-.3-.05-1.05-.24-1.28 0v.0499z"/>
    </symbol>
    <symbol id="icon-instagram" viewBox="0 0 24 24">
      <desc> Instagram Icon </desc>
      <path fill="#6BA755" d="M17.3767 0H6.62299C2.97108 0 0 2.97122 0 6.62313V17.3769C0 21.0289 2.97108 24 6.62299 24H17.3767C21.0289 24 24 21.0288 24 17.3769V6.62313C24.0001 2.97122 21.0289 0 17.3767 0zm4.494 17.3769c0 2.4779-2.0159 4.4937-4.4938 4.4937H6.62299c-2.47777.0001-4.49359-2.0158-4.49359-4.4937V6.62313c0-2.47776 2.01582-4.49373 4.49359-4.49373H17.3767c2.4779 0 4.4939 2.01597 4.4939 4.49373l.0001 10.75377z"/>
      <path fill="#6BA755" d="M12 5.81576c-3.41002 0-6.18419 2.77417-6.18419 6.18414 0 3.4099 2.77417 6.184 6.18419 6.184 3.41 0 6.1842-2.7741 6.1842-6.184 0-3.40997-2.7742-6.18414-6.1842-6.18414zm0 10.23854c-2.23573 0-4.0548-1.8188-4.0548-4.0545 0-2.23586 1.81893-4.05479 4.0548-4.05479 2.2359 0 4.0548 1.81893 4.0548 4.05479 0 2.2357-1.8191 4.0545-4.0548 4.0545zM18.4435 4.01042c-.4102 0-.8132.16609-1.103.45711-.2911.28959-.4585.69276-.4585 1.10444 0 .41041.1675.81343.4585 1.10445.2896.2896.6928.45711 1.103.45711.4117 0 .8135-.16751 1.1045-.45711.291-.29102.4571-.69418.4571-1.10445 0-.41168-.1661-.81485-.4571-1.10444-.2896-.29102-.6928-.45711-1.1045-.45711z"/>
    </symbol>
    <symbol id="icon-facebook" viewBox="0 0 12 25">
      <desc> Facebook Icon </desc>
      <path fill="#6BA755" d="M7.49502 24.5H2.99921v-12H3e-8V8.36445L2.99921 8.36309l-.00488-2.43637C2.99433 2.55284 3.90895.5 7.88211.5H11.19v4.13634H9.1227c-1.54722 0-1.62163.57788-1.62163 1.65666l-.00614 2.07009h3.71837l-.4384 4.13551-3.27688.0014-.003 12z"/>
    </symbol>
    <symbol id="icon-whatsapp" viewBox="0 0 23 24">
      <desc> Whatsapp Icon</desc>
      <path fill="#6BA755" d="M19.6398 3.48906c-1.0592-1.11048-2.3206-1.99087-3.7106-2.589881-1.3901-.599007-2.881-.90464539-4.3859-.899105C5.23738.000074.0981918 5.33706.0924159 11.889c0 2.0985.5285031 4.14 1.5263041 5.9475L0 24l6.07057-1.653c1.67937.9494 3.56079 1.447 5.47273 1.4475h.0058c6.3074 0 11.4451-5.337 11.4509-11.895.0014-1.5629-.2948-3.11067-.8718-4.55413-.5769-1.44346-1.4231-2.75406-2.4898-3.85631h.0014zM11.5433 21.7815c-1.70535.0006-3.37937-.4761-4.84604-1.38l-.34656-.216-3.60133.981.9617-3.6495-.22526-.3765c-.95332-1.5745-1.4575-3.3974-1.45411-5.2575 0-5.43895 4.26991-9.87593 9.5174-9.87593 1.2501-.00233 2.4883.25241 3.6432.74953 1.1549.49713 2.2037 1.2268 3.0858 2.14696.8852.91657 1.587 2.00613 2.0648 3.20584.4779 1.1997.7223 2.4858.7192 3.7841-.0057 5.4585-4.2756 9.888-9.5188 9.888zm5.2201-7.401c-.2845-.1485-1.6895-.867-1.9538-.969-.2628-.0975-.4548-.1485-.6425.1485-.1921.2955-.7408.969-.9054 1.1625-.1646.1995-.335.222-.6209.075-.2845-.15-1.2072-.462-2.2989-1.4775-.85195-.7875-1.42233-1.7625-1.59272-2.058-.16461-.297-.01588-.456.12707-.6045.12563-.132.28447-.348.42743-.519.1444-.17096.19205-.29696.28591-.49496.09386-.201.04909-.372-.02166-.5205-.0722-.14849-.64258-1.61399-.88373-2.20499-.23104-.5835-.46641-.5025-.64258-.51-.16461-.0105-.35666-.0105-.54872-.0105-.14503.00375-.28775.03859-.4192.10235s-.2488.15505-.34467.26815c-.26281.297-.9978 1.0155-.9978 2.48099 0 1.46546 1.02523 2.87396 1.16963 3.07346.14152.1995 2.01294 3.198 4.88504 4.488.6787.3075 1.213.489 1.6303.627.6859.228 1.3054.1935 1.7992.12.5487-.087 1.6909-.72 1.9321-1.4145.2368-.696.2368-1.29.1646-1.4145-.0708-.126-.2628-.1995-.5487-.348z"/>
    </symbol>
  </defs>
</svg>
