<svg width="150" height="39" viewBox="0 0 150 39" fill="none" xmlns="http://www.w3.org/2000/svg">
<path d="M8.29167 33.1144C8.29167 34.534 8.25615 35.9536 8.22066 37.3731C8.22066 38.2675 7.65285 38.8353 6.90048 38.7927C6.71657 38.7744 6.53853 38.7179 6.37772 38.6268C6.21691 38.5357 6.07689 38.412 5.96664 38.2637C5.85639 38.1154 5.77833 37.9456 5.73747 37.7654C5.69661 37.5851 5.69387 37.3984 5.72937 37.217C5.85713 34.9244 5.99195 32.6389 6.09132 30.3463C6.14101 29.1752 6.33976 28.4086 7.97226 28.5293C10.3926 28.7067 12.8201 28.7919 15.2404 28.9267C15.5674 28.936 15.8775 29.0739 16.1034 29.3105C16.3293 29.547 16.4528 29.8631 16.447 30.1902C16.4393 30.3654 16.3958 30.5372 16.3191 30.695C16.2425 30.8528 16.1343 30.9932 16.0013 31.1076C15.8683 31.2219 15.7133 31.3078 15.5458 31.36C15.3783 31.4122 15.2019 31.4296 15.0275 31.411C13.6079 31.3471 12.1884 31.2477 10.8114 31.1625H10.6197C10.4778 31.1625 10.2578 31.1626 10.2152 31.2619C10.1726 31.3613 10.3429 31.5175 10.4423 31.6168C12.6064 33.6519 15.3218 35.0047 18.2499 35.5064C20.5981 35.9582 23.0191 35.8601 25.3231 35.2197C27.6271 34.5794 29.7515 33.4142 31.5299 31.8156C31.6533 31.6856 31.8025 31.5829 31.9679 31.514C32.1333 31.4451 32.3113 31.4116 32.4904 31.4156C32.6696 31.4196 32.8459 31.4611 33.0081 31.5373C33.1702 31.6135 33.3147 31.7228 33.4321 31.8581C33.5412 31.9923 33.6218 32.1473 33.6689 32.3137C33.716 32.4801 33.7286 32.6543 33.706 32.8258C33.6834 32.9972 33.6261 33.1622 33.5375 33.3107C33.4489 33.4592 33.3309 33.5881 33.1908 33.6894C30.4427 36.1642 26.9866 37.7135 23.3106 38.1184C20.5966 38.4623 17.84 38.1911 15.245 37.3249C12.6501 36.4586 10.2833 35.0196 8.32004 33.1144H8.25619H8.29167ZM13.686 4.68772L10.2223 2.4661C10.0491 2.38837 9.89335 2.27671 9.76413 2.13772C9.6349 1.99874 9.53484 1.83526 9.46989 1.65694C9.38868 1.42283 9.37981 1.1697 9.44437 0.93046C9.50893 0.691221 9.64393 0.476949 9.83188 0.315466C10.0201 0.138774 10.2616 0.0296307 10.5186 0.00521844C10.7756 -0.0191938 11.0334 0.0425079 11.2514 0.180606C13.4944 1.60017 15.7231 3.01973 17.9376 4.43929C18.0768 4.52587 18.1961 4.64088 18.2878 4.77677C18.3794 4.91266 18.4414 5.06637 18.4695 5.22785C18.4977 5.38934 18.4914 5.55495 18.4511 5.71384C18.4108 5.87272 18.3374 6.02131 18.2357 6.14987C16.8635 8.33126 15.477 10.5032 14.0764 12.6657C13.9925 12.8115 13.8792 12.9383 13.7436 13.038C13.6081 13.1377 13.4534 13.2081 13.2892 13.2448C13.125 13.2815 12.955 13.2837 12.7899 13.2512C12.6249 13.2187 12.4683 13.1522 12.3303 13.056C12.1894 12.9653 12.0684 12.8468 11.9747 12.7078C11.881 12.5689 11.8166 12.4122 11.7854 12.2476C11.7542 12.0829 11.7569 11.9136 11.7932 11.7499C11.8295 11.5863 11.8987 11.4318 11.9967 11.2958C12.7065 10.1246 13.4802 8.9677 14.2183 7.81075L14.7152 7.02288C13.5954 7.26735 12.5204 7.68399 11.5283 8.25792C6.21911 11.2532 3.43678 15.8384 3.11738 21.907C3.09416 23.0995 3.21088 24.2906 3.46517 25.4559C3.52598 25.6214 3.55041 25.7982 3.53682 25.974C3.52323 26.1498 3.47194 26.3207 3.38641 26.4749C3.30087 26.6291 3.18309 26.7631 3.04113 26.8678C2.89918 26.9724 2.73636 27.0452 2.56373 27.0813C2.38872 27.1193 2.20766 27.1196 2.03252 27.0822C1.85738 27.0449 1.69218 26.9707 1.54788 26.8647C1.40358 26.7586 1.28346 26.6231 1.1955 26.4671C1.10755 26.3111 1.05374 26.1382 1.03768 25.9599C0.127755 21.6048 0.835773 17.0673 3.02922 13.1965C5.22267 9.32561 8.75129 6.3865 12.9549 4.92904L13.6647 4.68772H13.686ZM38.8619 23.1704L42.205 21.0979C43.0354 20.5868 43.7665 20.7004 44.164 21.3889C44.5615 22.0774 44.2989 22.7304 43.511 23.2272L37.5204 26.9819C36.4132 27.6917 35.8951 27.564 35.2137 26.4851C33.9431 24.4764 32.6797 22.4535 31.4234 20.4378C30.9053 19.6073 31.0189 18.8762 31.7073 18.4717C32.3958 18.0671 33.0417 18.3226 33.5457 19.1318L36.108 23.1988C36.3361 22.3816 36.4367 21.5341 36.4061 20.6862C36.4416 17.1208 35.268 13.6486 33.0767 10.836C30.8853 8.02333 27.8056 6.03621 24.3398 5.19876C24.1569 5.18244 23.9798 5.12666 23.8205 5.03529C23.6613 4.94392 23.5237 4.81912 23.4173 4.66948C23.3109 4.51984 23.2382 4.3489 23.2042 4.16847C23.1702 3.98803 23.1758 3.80238 23.2204 3.62428C23.2651 3.44619 23.3478 3.27988 23.4629 3.13683C23.578 2.99378 23.7227 2.87737 23.8871 2.79563C24.0515 2.71388 24.2317 2.66875 24.4152 2.66332C24.5988 2.6579 24.7813 2.69231 24.9502 2.7642C28.6622 3.6672 31.9982 5.71027 34.4896 8.60644C36.9809 11.5026 38.5025 15.1064 38.8406 18.9117C38.9459 20.288 38.9198 21.6713 38.7626 23.0427C38.7596 23.0994 38.7596 23.1562 38.7626 23.213C38.7626 23.213 38.8548 23.213 38.8974 23.1704" fill="#352F28"/>
<path d="M20.7837 21.7509C20.7837 20.6862 20.7837 19.7777 20.8334 18.8621C20.8334 18.422 20.5778 18.3652 20.2655 18.2871C19.172 18.0488 18.1691 17.5035 17.3746 16.7152C16.58 15.9269 16.0268 14.9284 15.7797 13.8368C15.6723 13.4044 15.6105 12.9619 15.5952 12.5166C15.5952 11.8068 15.9075 11.5584 16.5889 11.601C18.0716 11.672 19.4741 12.2948 20.521 13.3471C20.5991 13.4251 20.6914 13.489 20.7837 13.5671C21.0463 13.3825 20.9327 13.1128 20.9398 12.8573C20.9753 12.2611 20.9398 11.6578 20.9895 11.0616C20.9895 10.5931 21.238 10.2879 21.749 10.3518C21.8429 10.3581 21.9347 10.3829 22.0189 10.425C22.1031 10.4671 22.1781 10.5255 22.2395 10.5969C22.301 10.6682 22.3476 10.751 22.3767 10.8406C22.4058 10.9301 22.4168 11.0245 22.4091 11.1184V11.7146C22.4091 13.4512 22.383 15.1878 22.331 16.9244C22.2906 17.1636 22.3176 17.4094 22.4091 17.6341C22.939 17.2025 23.4936 16.8019 24.07 16.4346C24.9076 16.0128 25.8294 15.7847 26.7671 15.7674C27.4769 15.7674 27.6899 15.9946 27.6828 16.683C27.6411 17.9835 27.1722 19.2339 26.3485 20.2411C25.5248 21.2482 24.3922 21.956 23.1259 22.2548C22.4162 22.4394 22.1961 22.702 22.2103 23.433C22.2458 25.3211 22.2103 27.2162 22.1394 29.1113V29.7075C22.1394 30.1831 21.9193 30.4954 21.4296 30.5025C20.9398 30.5096 20.7198 30.1405 20.7198 29.7004C20.6843 28.9456 20.6985 28.1892 20.7624 27.4362C20.8334 26.7264 20.6133 26.4354 19.8823 26.2296C18.654 25.8972 17.5642 25.1805 16.7724 24.1844C15.9806 23.1882 15.5283 21.9649 15.4816 20.6933C15.4248 19.8558 15.6662 19.6073 16.5108 19.6286C17.3242 19.6772 18.1197 19.8874 18.8509 20.2469C19.5821 20.6064 20.2343 21.1081 20.7695 21.7225L20.7837 21.7509ZM17.2206 21.1902C16.9509 21.1902 17.0502 21.4102 17.0857 21.5947C17.3065 22.366 17.7171 23.0697 18.28 23.6413C18.843 24.213 19.5403 24.6343 20.3081 24.8668C20.6559 24.9449 20.6985 24.8668 20.6204 24.5332C20.4922 23.97 20.2507 23.4387 19.9106 22.9717C19.2524 22.0812 18.2945 21.4586 17.2135 21.2185L17.2206 21.1902ZM20.7695 16.6192C20.7695 15.3912 18.775 13.3187 17.4903 13.1625C17.178 13.1199 17.1567 13.2619 17.1851 13.5032C17.3341 14.7879 19.2293 16.7114 20.4998 16.8605C20.6843 16.9102 20.8121 16.9031 20.7624 16.6475L20.7695 16.6192ZM26.1141 17.5916C26.1141 17.2012 25.9438 17.2863 25.7734 17.336C25.0367 17.5238 24.3572 17.8892 23.7942 18.4002C23.2313 18.9112 22.802 19.5523 22.544 20.2674C22.4801 20.452 22.2671 20.7004 22.4943 20.8779C22.7214 21.0553 22.9201 20.8423 23.1189 20.7714C23.7107 20.5676 24.2556 20.2472 24.7214 19.829C25.1871 19.4108 25.5642 18.9034 25.8302 18.3368C25.9438 18.1026 26.0289 17.8542 26.107 17.62L26.1141 17.5916Z" fill="#6FA645"/>
<path d="M17.2138 21.2185C18.2887 21.4721 19.2362 22.1046 19.8826 23C20.2227 23.467 20.4642 23.9983 20.5924 24.5616C20.6705 24.8739 20.6279 24.9732 20.2801 24.8952C19.5123 24.6627 18.815 24.2413 18.252 23.6697C17.6891 23.0981 17.2784 22.3944 17.0577 21.6231C17.0222 21.4385 16.9228 21.2114 17.1925 21.2185H17.2138ZM20.7628 16.6475C20.8124 16.903 20.6847 16.9101 20.493 16.8888C19.2225 16.7398 17.3274 14.8163 17.1784 13.5316C17.1784 13.2902 17.1784 13.1483 17.4836 13.1909C18.7683 13.347 20.7344 15.4196 20.7628 16.6475ZM26.1074 17.6199C26.0293 17.8257 25.9442 18.1025 25.8235 18.3652C25.5574 18.9317 25.1804 19.4392 24.7146 19.8573C24.2489 20.2755 23.704 20.596 23.1121 20.7997C22.9134 20.8707 22.6721 21.0481 22.4875 20.9062C22.303 20.7642 22.4875 20.4803 22.5372 20.2958C22.7953 19.5806 23.2245 18.9395 23.7875 18.4285C24.3504 17.9176 25.03 17.5522 25.7667 17.3644C25.937 17.3147 26.1358 17.2295 26.1074 17.6199Z" fill="#B0D28D"/>
<path d="M130.339 23.2038C129.817 23.9548 129.134 24.58 128.34 25.0338C127.545 25.4876 126.66 25.7586 125.748 25.8271C123.295 25.8271 121.97 24.0301 123.02 21.8003C123.62 20.5515 124.511 19.4649 125.617 18.6319C126.724 17.7988 128.015 17.2436 129.381 17.0128C130.155 16.8292 130.968 16.8686 130.903 15.7012C130.903 15.3208 131.244 15.1634 131.611 15.1896C131.797 15.1861 131.976 15.2556 132.111 15.3831C132.246 15.5107 132.326 15.6862 132.332 15.8717C132.582 17.4195 133.001 18.941 133.093 20.4887C133.417 24.262 133.307 28.06 132.765 31.8082C132.609 33.0357 132.199 34.2173 131.562 35.2784C130.926 36.3396 130.076 37.2571 129.066 37.9729C125.407 40.5306 121.564 37.3564 121.197 34.4183C120.935 33.1648 121.04 31.8627 121.498 30.667C121.613 30.3792 121.819 30.1366 122.084 29.9757C122.349 29.8148 122.659 29.7445 122.967 29.7751C123.702 29.7751 124.148 29.9981 123.78 30.9293C123.539 31.4536 123.406 32.0209 123.388 32.5976C123.37 33.1744 123.468 33.7489 123.676 34.2872C123.769 34.5612 123.918 34.8127 124.114 35.0258C124.31 35.2389 124.549 35.4088 124.814 35.5248C125.079 35.6408 125.366 35.7003 125.655 35.6995C125.945 35.6986 126.231 35.6376 126.496 35.5201C127.038 35.3159 127.532 35.002 127.947 34.598C128.363 34.194 128.69 33.7086 128.909 33.1723C129.94 29.965 130.445 26.6119 130.404 23.2431L130.339 23.2038ZM130.653 18.154C128.804 19.4656 126.719 20.4887 125.722 22.7185C125.578 23.0595 125.341 23.4268 125.722 23.7284C126.102 24.0301 126.351 23.7285 126.64 23.6235C127.702 23.1027 128.618 22.3269 129.307 21.3657C129.996 20.4044 130.436 19.2875 130.588 18.1146L130.653 18.154ZM81.021 24.2794C81.0353 23.2078 80.7984 22.1477 80.3292 21.1842C79.8599 20.2207 79.1715 19.3806 78.319 18.7311C77.6539 18.2545 76.962 17.8166 76.2466 17.4194C73.8069 15.9898 73.0593 13.4845 74.4497 11.3728C74.7954 10.8354 75.2484 10.3751 75.7803 10.0208C76.3121 9.66646 76.9113 9.42575 77.5405 9.31371C78.1696 9.20167 78.8151 9.2207 79.4366 9.36963C80.0581 9.51856 80.6421 9.79416 81.1521 10.1792C81.9882 10.855 82.6834 11.6883 83.1983 12.632C83.3688 12.9205 83.5787 13.2222 83.1983 13.4977C83.0714 13.6092 82.9082 13.6708 82.7392 13.6708C82.5703 13.6708 82.4071 13.6092 82.2802 13.4977C81.9785 13.2878 81.703 13.0386 81.4013 12.8287C81.0263 12.5596 80.5904 12.3875 80.1326 12.328C79.6748 12.2685 79.2095 12.3234 78.7781 12.4877C78.2272 12.6844 77.6894 12.9599 77.5714 13.6026C77.4533 14.2453 77.9649 14.6519 78.4764 14.9142C79.973 15.6248 81.2541 16.7202 82.1884 18.0884C84.0903 21.0658 84.8116 24.2006 83.0672 27.506C82.486 28.5293 81.5777 29.3276 80.4881 29.7724C79.3986 30.2173 78.1911 30.2829 77.0598 29.9587C75.9179 29.4704 74.9728 28.613 74.3759 27.5239C73.779 26.4347 73.5648 25.1768 73.7676 23.9514C73.8725 23.5055 74.0824 23.1251 74.5415 23.1251C75.2235 23.1251 74.9481 23.7022 74.9612 24.0564C74.9529 24.6728 75.0101 25.2883 75.1317 25.8926C75.2013 26.5238 75.5143 27.1031 76.0041 27.5072C76.494 27.9113 77.1221 28.1085 77.755 28.0569C78.4787 28.0468 79.1793 27.8004 79.75 27.3552C80.3207 26.9101 80.7302 26.2905 80.916 25.591C80.967 25.1776 80.9933 24.7615 80.9947 24.3449" fill="#36312A"/>
<path d="M99.5284 23.2825C99.482 21.3762 99.9341 19.4908 100.84 17.8129C101.252 16.8149 101.962 15.9682 102.872 15.3884C103.783 14.8086 104.851 14.524 105.929 14.5732C106.551 14.618 107.155 14.7993 107.699 15.1044C108.242 15.4094 108.712 15.8306 109.074 16.338C109.436 16.8453 109.681 17.4263 109.793 18.0395C109.905 18.6527 109.88 19.2829 109.72 19.8853C109.31 21.1416 108.579 22.2687 107.599 23.1546C106.618 24.0406 105.423 24.6545 104.132 24.9352C103.135 25.1975 103.083 25.5648 103.424 26.3255C103.626 26.8699 103.97 27.3501 104.421 27.7159C104.574 27.869 104.758 27.9884 104.96 28.0661C105.162 28.1438 105.378 28.1783 105.595 28.1672C105.811 28.156 106.023 28.0996 106.216 28.0015C106.409 27.9035 106.579 27.7659 106.716 27.5978C107.47 26.7332 108.106 25.7715 108.605 24.7384C108.74 24.4411 108.907 24.1596 109.103 23.899C109.18 23.774 109.3 23.682 109.441 23.6407C109.581 23.5995 109.732 23.6121 109.864 23.676C109.929 23.7095 109.986 23.7565 110.031 23.8138C110.076 23.8711 110.108 23.9374 110.125 24.0082C110.143 24.079 110.145 24.1527 110.132 24.2243C110.118 24.296 110.09 24.3639 110.048 24.4236C109.322 26.4074 108.156 28.2011 106.637 29.6702C106.212 30.0334 105.715 30.3018 105.177 30.4576C104.64 30.6133 104.076 30.6528 103.523 30.5734C102.969 30.4939 102.439 30.2974 101.967 29.9969C101.496 29.6964 101.093 29.2989 100.788 28.8308C99.7442 27.1938 99.2821 25.2533 99.4759 23.3218L99.5284 23.2825ZM102.926 22.1807C102.821 24.2925 103.03 24.4892 104.473 23.7416C105.385 23.3699 106.202 22.8006 106.866 22.0748C107.531 21.349 108.026 20.4847 108.316 19.5443C108.45 19.1316 108.43 18.6847 108.262 18.2851C108.093 17.8855 107.787 17.5597 107.398 17.367C106.949 17.1053 106.418 17.0221 105.91 17.1339C105.402 17.2457 104.955 17.5442 104.657 17.9704C103.634 19.1259 103.041 20.5992 102.978 22.1414L102.926 22.1807Z" fill="#36322B"/>
<path d="M146.157 22.3512C145.435 23.7678 144.845 24.9745 144.163 26.2205C143.729 27.1571 143.066 27.9692 142.235 28.5815C141.882 28.892 141.45 29.0982 140.987 29.177C140.523 29.2557 140.047 29.204 139.612 29.0275C139.181 28.7807 138.829 28.4168 138.597 27.978C138.365 27.5391 138.262 27.0434 138.3 26.5484C138.155 24.3678 138.822 22.2107 140.174 20.4934C141.526 18.776 143.465 17.6202 145.619 17.2489C146.341 17.0915 146.813 16.9079 146.931 16.1209C147.009 15.7405 147.154 15.3208 147.731 15.3864C148.308 15.452 148.478 15.8717 148.531 16.3308C148.574 16.7669 148.574 17.2063 148.531 17.6424C148.23 21.5383 148.675 25.4559 149.843 29.1849C149.935 29.4692 149.988 29.7649 150 30.0637C150 30.444 149.816 30.7588 149.265 30.9818C148.282 31.3753 147.836 30.7588 147.482 29.9981C146.367 27.624 146.485 25.0401 146.091 22.2725L146.157 22.3512ZM146.288 18.5475C142.209 19.6492 141.041 22.784 141.278 26.273C141.278 26.5091 141.278 26.8895 141.632 26.955C141.986 27.0206 142.143 26.7452 142.353 26.5484C143.092 25.6739 143.693 24.692 144.137 23.6366C145.092 22.0709 145.838 20.3863 146.354 18.6261L146.288 18.5475ZM114.481 18.7704C115.217 17.4528 116.196 16.2867 117.366 15.3339C118.678 14.4026 119.504 14.7174 119.872 16.239C120.199 17.6446 120.265 19.0983 120.068 20.528C120.068 20.7248 120.068 20.9871 119.832 21.0527C119.596 21.1182 119.386 20.8953 119.255 20.6854C118.941 19.8841 118.794 19.0272 118.822 18.1671C118.73 17.5768 118.822 16.6718 118.324 16.4882C117.825 16.3045 117.353 17.1177 117.012 17.5768C115.504 19.3475 114.468 21.2363 115.084 23.7547C115.398 25.4076 115.625 27.0756 115.766 28.752C115.884 29.6964 115.766 30.4703 114.612 30.667C113.654 30.8244 113.3 30.4047 113.09 29.5259C112.476 26.1275 112.038 22.6995 111.779 19.2557C111.674 18.1539 111.621 17.039 111.53 15.9373C111.53 15.4388 111.53 15.0454 112.107 14.9273C112.684 14.8093 113.222 14.7043 113.549 15.4257C113.99 16.5055 114.324 17.6257 114.546 18.7704" fill="#37322B"/>
<path d="M134.628 22.4562V19.0066C134.628 18.4295 134.72 17.813 135.507 17.6949C136.294 17.5769 136.438 18.2852 136.582 18.8098C136.773 19.5283 136.862 20.2702 136.844 21.0134C136.74 23.7678 136.949 26.5092 137.107 29.2636C137.107 29.8801 137.408 30.7327 136.49 30.9032C135.572 31.0737 135.179 30.2211 135.047 29.526C134.682 27.5005 134.507 25.4455 134.523 23.3875V22.4037L134.628 22.4562ZM84.7854 21.1446V18.3114C84.7854 17.7081 84.8903 17.1178 85.6117 16.9998C86.3331 16.8817 86.5429 17.4851 86.7397 18.036C86.9614 18.7439 87.0548 19.4857 87.0152 20.2264C86.9365 23.0202 87.1725 25.814 87.2906 28.6078C87.2906 29.2243 87.5791 30.0769 86.6347 30.208C85.6904 30.3392 85.428 29.5784 85.3231 28.8964C84.9473 26.9158 84.7541 24.905 84.746 22.8891V21.1577" fill="#36322B"/>
<path d="M86.9366 15.3602C86.8185 15.8324 86.3856 15.9242 85.9921 15.9373C85.5986 15.9504 85.297 15.5701 85.3494 15.0979C85.4019 14.6257 85.6249 14.2716 86.1102 14.3634C86.3407 14.411 86.548 14.5356 86.6982 14.7168C86.8484 14.898 86.9325 15.1249 86.9366 15.3602ZM135.861 16.7374C135.297 16.7374 135.166 16.3702 135.166 15.9242C135.166 15.4783 135.375 15.0716 135.848 15.111C135.97 15.1177 136.09 15.1485 136.2 15.2016C136.311 15.2547 136.41 15.329 136.491 15.4204C136.573 15.5118 136.636 15.6184 136.676 15.7341C136.716 15.8498 136.734 15.9724 136.726 16.0947C136.726 16.6325 136.189 16.5932 135.861 16.7374ZM98.5183 19.4394C98.6822 18.2954 98.6822 17.1338 98.5183 15.9898C98.4134 15.3996 98.3085 14.6781 97.5871 14.5076C97.2651 14.4373 96.9291 14.4689 96.6259 14.5982C96.3227 14.7275 96.0672 14.948 95.895 15.2291C95.2467 15.9723 94.6713 16.7761 94.1768 17.6293C93.0206 19.5596 92.1086 21.6259 91.4617 23.781C91.1207 23.5317 91.1994 23.2694 91.1863 23.0333C91.2015 20.5646 91.0525 18.0977 90.7403 15.6488C90.6353 15.0585 90.5042 14.4158 89.7959 14.4027C89.0876 14.3896 88.8647 15.0454 88.7991 15.6225C88.2411 19.8283 88.3075 24.0935 88.9959 28.2799C89.1401 29.0931 89.2188 30.2473 90.3075 30.2473C91.3962 30.2473 91.383 29.0668 91.5011 28.2667C91.9916 24.6785 93.2101 21.2283 95.0818 18.1278C95.436 17.5375 95.6458 16.3833 96.3934 16.6063C96.8656 16.7506 96.3935 17.9179 96.2754 18.6C95.5492 21.9009 95.3237 25.2923 95.6065 28.6603C95.6983 29.4997 96.0656 30.1293 97.0231 29.9719C97.9806 29.8145 98.584 29.4079 98.4266 28.3192C98.1182 25.3736 98.1578 22.402 98.5446 19.4656" fill="#37322B"/>
<path d="M50.0659 13.9174C50.8791 12.8549 51.4563 12.0155 52.1121 11.2941C52.8368 10.3379 53.8131 9.60215 54.9321 9.16919C56.1125 8.74947 56.7028 9.10364 57.0307 10.3104C57.2321 11.0495 57.2413 11.8277 57.0577 12.5714C56.8741 13.3151 56.5036 13.9996 55.9814 14.5601C55.4173 15.2552 54.7747 15.8717 54.1057 16.6062C54.8988 16.888 55.6141 17.3533 56.1931 17.9643C56.7721 18.5752 57.1985 19.3143 57.4373 20.1214C58.0276 22.3905 58.6309 24.699 57.4373 26.9682C57.1241 27.6084 56.6783 28.1746 56.1295 28.6292C55.5806 29.0838 54.9413 29.4165 54.254 29.605C53.5667 29.7936 52.8472 29.8338 52.1432 29.7229C51.4392 29.612 50.7668 29.3526 50.1708 28.9619C50.0265 28.87 49.8822 28.6733 49.7642 28.6996C48.0328 29.0799 48.4525 27.7683 48.4525 26.9157C48.4525 21.7741 48.6362 16.6325 48.3607 11.4908V11.0711V9.91684C48.3607 9.53646 48.4657 9.14299 48.9378 9.07741C49.41 9.01183 49.5675 9.43154 49.6986 9.75945C49.8242 10.1054 49.8993 10.4676 49.9216 10.835C49.9216 11.7663 50.0003 12.7107 50.0528 13.9961L50.0659 13.9174ZM55.7453 22.9677C55.787 22.1798 55.7208 21.3898 55.5486 20.6198C55.4723 20.1545 55.3001 19.7101 55.0427 19.3149C54.7853 18.9198 54.4485 18.5826 54.0537 18.3247C53.6589 18.0668 53.2147 17.894 52.7495 17.8172C52.2842 17.7404 51.808 17.7612 51.3513 17.8785C50.3938 18.0359 50.1839 18.5212 50.1577 19.3607C50.1577 20.9084 50.0921 22.4693 49.9478 24.0301C49.878 24.4686 49.9207 24.9176 50.0718 25.3351C50.2228 25.7526 50.4774 26.1249 50.8116 26.4172C51.1459 26.7095 51.5488 26.9121 51.9827 27.0062C52.4166 27.1003 52.8672 27.0827 53.2925 26.9551C54.9976 26.4566 55.719 25.3024 55.7584 22.889L55.7453 22.9677ZM55.3125 10.4415C53.5682 11.6522 52.1709 13.2982 51.2595 15.2159C53.0171 14.9011 54.9583 12.6319 55.3255 10.3628L55.3125 10.4415Z" fill="#72A64A"/>
<path d="M73.112 22.6529C73.127 24.5509 72.5033 26.3987 71.3413 27.8994C70.8788 28.5545 70.2572 29.0809 69.5351 29.4292C68.8129 29.7775 68.0138 29.9362 67.2133 29.8902C66.4129 29.8443 65.6373 29.5953 64.9597 29.1667C64.2821 28.7381 63.7248 28.144 63.3403 27.4404C61.3335 23.8727 62.6582 17.5113 65.9636 15.0585C68.5869 13.0779 71.2101 13.8387 72.2988 16.921C72.9423 18.7516 73.2317 20.6879 73.1514 22.6267L73.112 22.6529ZM65.8979 22.7578C65.7894 23.5135 65.8612 24.2841 66.1074 25.0067C66.3536 25.7294 66.7672 26.3835 67.3145 26.9157C67.5744 27.1828 67.8948 27.3833 68.2485 27.5004C68.6023 27.6176 68.979 27.6478 69.3469 27.5887C69.7148 27.5295 70.0631 27.3826 70.3623 27.1605C70.6615 26.9383 70.9028 26.6474 71.0658 26.3124C71.4409 25.6724 71.6819 24.9629 71.7741 24.2269C72.2777 21.7049 71.8092 19.0858 70.4625 16.8948C69.5575 15.5832 68.5868 15.5832 67.6949 16.8948C66.5669 18.6583 65.9329 20.692 65.8586 22.7841L65.8979 22.7578ZM61.1761 27.283V28.8832C61.1761 29.421 61.1761 29.6439 60.7039 29.7882C60.5038 29.8427 60.2914 29.8299 60.0994 29.7516C59.9074 29.6734 59.7465 29.5342 59.6415 29.3554C59.2325 28.7872 58.9957 28.1133 58.9594 27.4141C58.6469 24.4389 58.5505 21.4449 58.6709 18.4556C58.6514 18.255 58.6514 18.053 58.6709 17.8523C58.802 17.3145 58.7627 16.6325 59.5628 16.5407C60.3629 16.4488 60.4809 17.1571 60.6252 17.6687C60.8478 18.6269 60.9404 19.6107 60.9006 20.5936C60.9006 22.8103 61.0186 25.027 61.0711 27.2305H61.1761" fill="#6FA549"/>
<path d="M59.8645 13.9174C60.1004 13.9371 60.3223 14.0381 60.4921 14.2032C60.6619 14.3682 60.7692 14.587 60.7957 14.8224C60.7957 15.3732 60.3891 15.4782 59.9956 15.5307C59.6021 15.5831 59.248 15.2683 59.2349 14.7961C59.2109 14.5975 59.2623 14.397 59.3788 14.2343C59.4954 14.0717 59.6686 13.9586 59.8645 13.9174Z" fill="#72A64A"/>
</svg>
